<svg width="345" height="255" viewBox="0 0 345 255" fill="none" xmlns="http://www.w3.org/2000/svg">
<g clip-path="url(#clip0)">
<path d="M311.489 122.12L306.35 144.216L302.179 162.143L298.854 176.44L294.686 194.366L281.063 252.93L112.264 178.358L99.8562 172.875L84.1506 165.936L71.7383 160.453L56.8096 153.857L65.2729 142.085L72.3108 132.296L81.2142 119.911L88.2501 110.128L167.425 0L251.298 71.0981L266.233 83.7583L278.142 93.8538L293.08 106.514L311.489 122.12Z" fill="#F2F2F2"/>
<path d="M66.1304 187.13C54.843 181.114 47.8162 172.9 45.2451 162.718C43.336 155.158 43.8846 146.65 46.8754 137.432C49.0926 130.636 52.4169 124.216 56.7257 118.409C79.5848 87.4746 81.6479 67.3173 79.3535 55.8547C76.8378 43.2863 68.6643 38.0666 68.582 38.0154L68.9348 37.4966C69.0192 37.549 77.408 42.8901 79.9842 55.7135C81.4694 63.1062 80.7707 71.5359 77.9075 80.7683C74.344 92.2583 67.3953 105.043 57.2544 118.767C52.9848 124.52 49.6908 130.881 47.4936 137.615C42.5883 152.734 41.8943 173.504 66.4455 186.589L66.1304 187.13Z" fill="#2F2E41"/>
<path d="M71.5584 187.13C82.8458 181.114 89.8725 172.9 92.4437 162.718C94.3528 155.158 93.8042 146.65 90.8133 137.432C88.5962 130.636 85.2719 124.216 80.963 118.409C58.104 87.4746 56.0408 67.3173 58.3353 55.8547C60.851 43.2863 69.0245 38.0666 69.1068 38.0154L68.754 37.4966C68.6696 37.549 60.2808 42.8901 57.7045 55.7135C56.2194 63.1062 56.9181 71.5359 59.7813 80.7683C63.3448 92.2583 70.2935 105.043 80.4343 118.767C84.7039 124.52 87.998 130.881 90.1952 137.615C95.1005 152.734 95.7945 173.504 71.2433 186.589L71.5584 187.13Z" fill="#2F2E41"/>
<path d="M317.574 161.14C306.286 155.124 299.259 146.911 296.688 136.729C294.779 129.169 295.328 120.661 298.319 111.443C300.536 104.646 303.86 98.2267 308.169 92.4202C331.028 61.4853 333.091 41.3281 330.797 29.8655C328.281 17.2971 320.107 12.0773 320.025 12.0261L320.378 11.5073C320.462 11.5597 328.851 16.9008 331.427 29.7242C332.913 37.117 332.214 45.5467 329.351 54.779C325.787 66.2691 318.838 79.0536 308.698 92.7773C304.428 98.5307 301.134 104.892 298.937 111.626C294.031 126.745 293.337 147.514 317.889 160.6L317.574 161.14Z" fill="#2F2E41"/>
<path d="M323.001 161.14C334.289 155.124 341.316 146.911 343.887 136.729C345.796 129.169 345.247 120.661 342.256 111.443C340.039 104.646 336.715 98.2266 332.406 92.4202C309.547 61.4853 307.484 41.3281 309.778 29.8655C312.294 17.2971 320.468 12.0773 320.55 12.0261L320.197 11.5073C320.113 11.5597 311.724 16.9008 309.148 29.7242C307.663 37.117 308.361 45.5467 311.224 54.779C314.788 66.2691 321.737 79.0535 331.877 92.7773C336.147 98.5307 339.441 104.892 341.638 111.626C346.544 126.745 347.238 147.514 322.686 160.6L323.001 161.14Z" fill="#2F2E41"/>
<path d="M151.388 92.8001C142.908 79.0998 126.129 78.4613 126.129 78.4613C126.129 78.4613 109.78 76.4624 99.2914 97.3281C89.5155 116.777 76.0236 135.555 97.1193 140.107L100.93 128.769L103.29 140.952C106.293 141.158 109.306 141.207 112.316 141.099C134.907 140.402 156.423 141.303 155.73 133.552C154.809 123.249 159.549 105.983 151.388 92.8001Z" fill="#2F2E41"/>
<path d="M116.579 121.474C119.501 127.654 121.344 135.02 122.444 143.203L145.905 141.801C140.511 134.494 138.721 126.106 140.773 116.567L116.579 121.474Z" fill="#FFB8B8"/>
<path opacity="0.2" d="M116.579 121.474C119.501 127.654 121.344 135.02 122.444 143.203L145.905 141.801C140.511 134.494 138.721 126.106 140.773 116.567L116.579 121.474Z" fill="black"/>
<path d="M7.72521 239.142C7.72521 239.142 -4.41745 245.36 1.74431 250.669C7.90608 255.978 16.0455 243.642 16.0455 243.642L7.72521 239.142Z" fill="#FFB8B8"/>
<path d="M156.17 221.009L155.98 229.504L155.576 247.86V247.863L155.458 253.179H77.8076L80.9634 236.425L80.9666 236.413L83.7924 221.418L85.0535 214.702V214.699L148.839 206.288L156.17 221.009Z" fill="#2F2E41"/>
<path d="M156.17 221.01L155.979 229.505C133.412 228.951 98.4329 223.743 83.7916 221.416L85.0526 214.701L148.838 206.29L156.17 221.01Z" fill="#3F3D56"/>
<path d="M127.943 127.432C138.066 127.432 146.272 119.586 146.272 109.908C146.272 100.23 138.066 92.3843 127.943 92.3843C117.82 92.3843 109.614 100.23 109.614 109.908C109.614 119.586 117.82 127.432 127.943 127.432Z" fill="#FFB8B8"/>
<path d="M163.135 230.472C163.135 230.472 165.334 249.398 152.137 247.996L149.938 229.071L138.207 217.855L105.215 217.154L81.0203 238.884C81.0203 238.884 80.2871 216.453 83.2198 214.35C86.1524 212.248 92.7509 207.341 92.7509 207.341V203.836L72.9554 165.284C72.9554 165.284 84.6861 142.152 94.2172 141.451L106.681 140.75C106.681 140.75 111.08 138.647 111.08 137.946C111.08 137.245 110.347 131.638 114.013 133.04C114.013 133.04 114.343 125.848 118.206 128.042C118.206 128.042 130.37 137.154 142.716 128.441C142.716 128.441 148.471 127.432 147.738 130.236C147.005 133.04 147.738 135.143 149.205 135.143C150.671 135.143 157.269 137.245 157.269 138.647C157.269 138.949 157.746 141.851 158.494 146.218V146.225C161.214 162.143 167.534 197.528 167.534 197.528C167.534 197.528 174.132 206.64 163.135 230.472Z" fill="#F26A21"/>
<path d="M78.0876 161.779L72.9554 165.284L26.0329 222.762L1.10529 241.688C1.10529 241.688 15.0354 239.585 12.1028 250.8L97.883 203.836L78.0876 161.779Z" fill="#F26A21"/>
<path d="M158.494 146.218V146.225C157.519 151.706 125.743 150.564 121.344 150.564C116.945 150.564 113.279 149.863 108.88 147.059C104.481 144.255 106.681 140.75 106.681 140.75C106.681 140.75 110.427 138.023 110.427 137.322C110.427 136.621 109.693 131.013 113.359 132.415C113.359 132.415 113.689 125.223 117.553 127.417C117.553 127.417 130.37 137.154 142.716 128.442C142.716 128.442 148.471 127.432 147.738 130.236C147.005 133.04 147.738 135.143 149.205 135.143C150.671 135.143 157.269 137.246 157.269 138.647C157.269 138.949 157.746 141.851 158.494 146.218Z" fill="#3F3D56"/>
<path d="M154.703 120.072C154.703 120.072 148.838 108.156 142.973 113.763C137.107 119.371 149.571 127.782 149.571 127.782L154.703 120.072Z" fill="#FFB8B8"/>
<path d="M154.703 117.268C154.703 117.268 145.646 128.211 142.843 129.048C142.843 129.048 151.037 160.026 161.302 168.438L167.167 197.177C167.167 197.177 192.095 187.364 186.229 171.242C186.171 171.08 186.112 170.92 186.054 170.761C181.157 157.335 174.398 144.597 165.959 132.889L154.703 117.268Z" fill="#F26A21"/>
<path opacity="0.2" d="M149.863 149.725L167.9 197.177L161.302 168.438L149.863 149.725Z" fill="black"/>
<path d="M147.639 91.4795L131.063 83.1782L108.172 86.5741L103.435 106.573L115.225 106.139L118.519 98.792V106.018L123.959 105.818L127.116 94.1208L129.089 106.573L148.428 106.196L147.639 91.4795Z" fill="#2F2E41"/>
<path d="M304.233 199.352L313.638 231.427C313.638 231.427 311.7 259.838 320.744 254.279C329.999 248.591 326.558 224.633 326.558 224.633L321.137 195.858L304.233 199.352Z" fill="#A0616A"/>
<path d="M309.258 109.375L317.025 116.8V152.18C317.025 152.18 321.593 158.731 320.68 160.478C319.766 162.226 318.852 162.226 319.766 163.536C320.68 164.846 321.593 165.72 320.68 166.593C319.766 167.467 319.766 169.651 320.68 170.525C321.593 171.398 323.421 172.708 322.05 174.019C320.68 175.329 318.852 174.456 320.68 179.26C322.507 184.065 325.705 185.375 324.791 187.122C323.878 188.87 323.878 193.237 323.878 193.237L304.233 195.858L300.121 146.501L309.258 109.375Z" fill="#D0CDE1"/>
<path d="M324.791 192.8L301.949 193.674L302.862 202.847L322.964 199.352L324.791 192.8Z" fill="#3F3D56"/>
<path d="M261.974 63.7305L259.232 89.9374L287.101 93.8686L289.157 78.7997L291.213 63.7305H261.974Z" fill="#A0616A"/>
<path opacity="0.1" d="M261.974 63.5884L259.232 89.7957L287.101 93.7268L289.157 78.6576L291.213 63.5884H261.974Z" fill="black"/>
<path d="M201.44 188.433L216.973 220.318C216.973 220.318 219.714 235.169 223.826 235.606C227.938 236.042 232.05 220.318 232.05 220.318L226.567 212.019L220.171 188.433H201.44Z" fill="#A0616A"/>
<path d="M307.769 253.488H219.952C220.648 242.966 221.086 236.479 221.086 236.479L222.252 234.723L227.907 226.228L231.945 220.162L233.353 218.045L233.876 217.261L239.406 216.295L296.466 206.341C297.409 210.381 298.745 214.329 300.454 218.132C300.843 218.978 301.261 219.825 301.709 220.662C303.143 223.339 304.894 225.875 306.975 227.743C307.449 228.167 307.792 229.301 308.014 231.044C308.563 235.314 308.406 243.253 307.769 253.488Z" fill="#2F2E41"/>
<path d="M277.278 72.2474C289.389 72.2474 299.207 62.8607 299.207 51.2817C299.207 39.7026 289.389 30.3159 277.278 30.3159C265.167 30.3159 255.349 39.7026 255.349 51.2817C255.349 62.8607 265.167 72.2474 277.278 72.2474Z" fill="#A0616A"/>
<path d="M228.395 94.087L225.197 92.3398C225.197 92.3398 211.034 101.512 206.466 122.041C201.897 142.57 198.699 147.812 198.699 147.812C198.699 147.812 194.13 148.685 197.328 151.743C200.526 154.8 200.526 154.363 197.785 156.111C195.044 157.858 193.217 154.363 195.044 157.858C196.872 161.352 199.156 160.478 197.328 162.662C195.501 164.846 192.303 164.846 194.13 166.593C195.958 168.341 192.303 172.272 194.587 174.019C196.872 175.766 197.785 176.203 197.785 179.26C197.771 181.045 198.081 182.818 198.699 184.502H222.456C222.456 184.502 217.887 176.203 219.258 174.456C220.628 172.708 221.085 170.961 220.171 170.088C219.258 169.214 216.516 170.961 219.258 168.777C221.999 166.593 222.912 167.904 221.999 165.283C221.085 162.662 219.258 163.973 221.085 162.662C222.912 161.352 224.283 161.789 223.369 160.478C222.456 159.168 220.628 159.168 222.456 158.295C224.283 157.421 225.654 158.295 225.197 156.111C224.74 153.927 224.283 154.8 225.197 153.927C226.11 153.053 235.704 123.352 235.704 122.478C235.704 121.604 228.395 94.087 228.395 94.087Z" fill="#D0CDE1"/>
<path d="M223.826 182.754L195.044 184.502L202.354 191.053L222.456 191.49L223.826 182.754Z" fill="#3F3D56"/>
<path d="M232.05 215.513L226.11 225.996C226.11 225.996 243.928 228.18 250.324 230.364C256.72 232.548 273.167 235.605 273.167 235.605L277.278 220.318L232.05 215.513Z" fill="#3F3D56"/>
<path d="M284.131 220.318L289.157 234.732L309.258 230.801L306.974 217.261L284.131 220.318Z" fill="#3F3D56"/>
<path d="M292.355 79.2358C292.355 79.2358 290.984 78.3623 287.786 80.1094C284.588 81.8566 274.08 82.7301 269.055 77.4887C264.029 72.2473 260.375 67.8794 259.004 68.753C257.633 69.6266 256.72 79.6726 256.72 79.6726L252.151 83.1669L225.197 92.3394L227.481 151.306L231.593 164.846C231.593 164.846 228.395 175.329 232.506 181.444C236.618 187.559 230.222 189.743 230.222 189.743C230.222 189.743 228.852 191.49 229.765 195.858C230.679 200.226 228.852 216.387 228.852 216.387C228.852 216.387 267.684 232.985 308.345 218.571L303.776 201.973L301.492 164.846C301.492 164.846 303.776 158.731 303.319 156.11C302.862 153.49 317.025 116.799 317.025 116.799C317.025 116.799 314.741 98.4544 302.862 94.5234C290.984 90.5923 289.157 86.6612 289.157 86.6612C289.157 86.6612 294.639 80.983 292.355 79.2358Z" fill="#D0CDE1"/>
<path d="M255.197 53.9676C255.197 53.9676 252.92 50.7018 253.796 47.1848C254.319 45.188 254.526 43.1274 254.409 41.072C254.409 41.072 256.248 35.3778 258.087 32.1958C259.927 29.0137 259.051 27.6739 264.832 26.6691C270.612 25.6642 268.247 18.4628 283.487 26.2504C284.001 26.9367 284.717 27.4621 285.543 27.7602C286.369 28.0582 287.269 28.1156 288.129 27.9251C291.282 27.339 292.421 31.5259 292.421 31.5259C292.421 31.5259 294.523 30.3535 295.311 32.0283C296.1 33.7031 301.72 31.0231 301.72 42.3277C301.72 53.6323 295.324 63.7303 295.324 63.7303C295.324 63.7303 295.793 44.7146 285.37 42.7886C274.948 40.8626 263.737 35.2522 261.022 42.4536C258.306 49.6551 255.197 53.9676 255.197 53.9676Z" fill="#2F2E41"/>
<path d="M295.553 58.4885C296.688 58.4885 297.608 57.3152 297.608 55.8678C297.608 54.4204 296.688 53.2471 295.553 53.2471C294.417 53.2471 293.497 54.4204 293.497 55.8678C293.497 57.3152 294.417 58.4885 295.553 58.4885Z" fill="#A0616A"/>
</g>
<defs>
<clipPath id="clip0">
<rect width="345" height="255" fill="white"/>
</clipPath>
</defs>
</svg>
