<svg width="346" height="255" viewBox="0 0 346 255" fill="none" xmlns="http://www.w3.org/2000/svg">
<g clip-path="url(#clip0)">
<path d="M290.111 146.982L291.67 146.086L292.118 145.817C288.776 145.286 285.731 143.714 283.485 141.362C281.239 139.01 279.929 136.018 279.769 132.882C279.656 130.725 280.097 128.573 281.057 126.605C281.948 124.765 283.264 123.128 284.912 121.809C286.56 120.491 288.5 119.522 290.595 118.972L290.551 124.652L293.919 118.473H293.959C295.912 118.389 297.864 118.661 299.702 119.275C301.541 119.889 303.232 120.832 304.677 122.051C306.122 123.27 307.294 124.74 308.125 126.378C308.956 128.017 309.431 129.79 309.522 131.598C309.522 131.86 309.522 132.121 309.522 132.379C310.708 131.181 311.697 129.827 312.456 128.361C313.88 125.413 313.924 122.077 313.795 118.025C313.572 109.988 313.197 101.89 312.695 93.8192C309.179 93.4559 305.917 91.9438 303.497 89.5544C301.076 87.165 299.655 84.0548 299.488 80.7823C299.466 80.3611 299.488 79.9433 299.488 79.5323C299.488 79.427 299.488 79.3251 299.488 79.2232C299.514 78.8224 299.558 78.425 299.62 78.0343C299.62 77.9698 299.649 77.9086 299.66 77.8441C299.719 77.5135 299.793 77.1874 299.881 76.8658C299.91 76.7435 299.943 76.6247 299.98 76.5024C300.082 76.1627 300.2 75.8026 300.346 75.463C300.39 75.3509 300.442 75.2388 300.49 75.1233C300.595 74.8719 300.708 74.6239 300.831 74.3794C300.897 74.2503 300.959 74.1212 301.025 73.9956C301.025 73.965 301.058 73.931 301.077 73.897C302.648 71.0245 305.257 68.7526 308.45 67.4761C311.643 66.1996 315.218 65.9993 318.554 66.9099L318.451 74.2979L321.786 68.1836C324.522 69.6366 326.686 71.8608 327.963 74.532C329.239 77.2033 329.56 80.1821 328.881 83.0344C328.859 83.1329 328.826 83.228 328.8 83.3231C328.756 83.5065 328.705 83.6866 328.65 83.8666C328.58 84.0976 328.503 84.3218 328.418 84.546C328.356 84.7158 328.297 84.8856 328.228 85.0521C328.125 85.2966 328.011 85.5344 327.897 85.7722C327.828 85.9115 327.769 86.0541 327.696 86.19C327.509 86.5297 327.303 86.8931 327.083 87.2328C327.006 87.3517 326.918 87.4638 326.837 87.5725C326.676 87.8001 326.518 88.0277 326.342 88.2519C326.236 88.3877 326.122 88.5168 326.008 88.6493C325.847 88.8395 325.682 89.0297 325.506 89.2097C325.329 89.3898 325.256 89.4679 325.139 89.5936C325.021 89.7193 324.772 89.9333 324.577 90.1133C324.449 90.2254 324.321 90.3409 324.189 90.453C323.968 90.633 323.737 90.7926 323.506 90.9727C323.389 91.0576 323.275 91.1459 323.139 91.2274C322.772 91.4686 322.424 91.6962 322.039 91.9068C321.969 91.9476 321.896 91.9815 321.822 92.0189C321.51 92.1887 321.188 92.3586 320.861 92.5012C320.722 92.5658 320.575 92.6201 320.432 92.6813C320.16 92.7934 319.889 92.902 319.614 93.0006C319.452 93.0583 319.287 93.1093 319.122 93.1602C318.851 93.2485 318.572 93.3267 318.293 93.398C318.124 93.4421 317.959 93.4829 317.791 93.5203C317.486 93.5882 317.178 93.6425 316.862 93.6935H316.804C317.009 97.0903 317.191 100.497 317.35 103.914C318.237 102.227 319.487 100.726 321.024 99.5027C322.56 98.2792 324.35 97.3593 326.284 96.7995C328.218 96.2396 330.256 96.0517 332.271 96.2471C334.287 96.4426 336.238 97.0173 338.004 97.9361L335.374 104.607L340.785 99.7975C343.686 102.253 345.416 105.673 345.595 109.309C345.667 110.584 345.543 111.863 345.228 113.106C344.548 115.794 343.012 118.232 340.818 120.101C338.623 121.971 335.873 123.187 332.923 123.592C329.974 123.997 326.961 123.571 324.275 122.371C321.59 121.17 319.356 119.25 317.864 116.86C317.864 117.199 317.89 117.539 317.901 117.896C318 121.476 318.124 125.926 316.198 129.9C314.892 132.597 312.79 134.784 310.718 136.744C309.365 138.022 307.97 139.257 306.532 140.45C305.132 142.21 303.301 143.637 301.19 144.615C298.833 146.295 296.387 147.869 293.853 149.336L292.276 150.243C290.86 151.055 289.407 151.891 287.983 152.76C288.233 152.736 288.482 152.709 288.735 152.699C291.89 152.562 295.01 153.357 297.645 154.97C300.279 156.583 302.292 158.929 303.391 161.67L294.092 168.674L304.32 166.48C304.315 168.81 303.674 171.1 302.455 173.138C301.236 175.177 299.479 176.895 297.349 178.135C295.218 179.374 292.783 180.094 290.271 180.226C287.759 180.358 285.252 179.899 282.983 178.892L283.673 179.686C284.131 180.213 284.586 180.736 285.03 181.256C291.083 188.352 292.764 195.088 289.77 200.223L286.149 198.403C289.066 193.403 284.682 187.003 281.805 183.634C281.369 183.121 280.921 182.615 280.474 182.091C276.611 177.645 272.209 172.604 272.322 166.419C272.484 157.098 282.257 151.49 290.111 146.982Z" fill="#F2F2F2"/>
<path d="M227.819 87.9835L227.019 86.4481C226.946 86.3021 226.876 86.1526 226.799 86.0031C229.914 87.2014 233.377 87.384 236.619 86.521C239.861 85.658 242.69 83.8007 244.642 81.2535C246.594 78.7063 247.554 75.6205 247.363 72.502C247.173 69.3836 245.844 66.4176 243.594 64.0905L240.369 68.9207L241.103 62.0354C241.092 62.0267 241.081 62.0188 241.07 62.0117C239.47 60.9712 237.665 60.2325 235.758 59.8379C233.85 59.4433 231.878 59.4004 229.952 59.7117C228.027 60.0231 226.187 60.6825 224.536 61.6524C222.886 62.6222 221.459 63.8835 220.335 65.3643C220.17 65.5783 220.027 65.8025 219.88 66.0233C219.569 64.4212 219.517 62.7854 219.726 61.1693C220.228 57.9729 222.136 55.1434 224.579 51.7772C229.422 45.1059 234.426 38.4584 239.514 31.889C242.694 33.3307 246.325 33.6749 249.754 32.8599C253.184 32.0449 256.187 30.1241 258.224 27.4426C258.488 27.1029 258.723 26.7429 258.958 26.3862C259.013 26.2979 259.068 26.2062 259.119 26.1144C259.328 25.7748 259.523 25.4079 259.695 25.0479L259.772 24.8678C259.911 24.5587 260.04 24.2462 260.139 23.9303C260.183 23.8114 260.227 23.6959 260.264 23.5906C260.381 23.251 260.484 22.8909 260.568 22.5376C260.597 22.4187 260.619 22.2999 260.645 22.198C260.7 21.933 260.748 21.6647 260.785 21.3997C260.807 21.257 260.829 21.1178 260.843 20.9785C260.843 20.9411 260.843 20.9072 260.843 20.8698C261.19 17.6633 260.311 14.4458 258.359 11.7779C256.406 9.11008 253.505 7.16103 250.16 6.27044L245.967 12.5579L246.701 5.76432C243.55 5.62854 240.434 6.42958 237.81 8.05035C235.186 9.67112 233.19 12.0266 232.115 14.7726C232.078 14.8677 232.052 14.9628 232.016 15.0579C231.95 15.2345 231.887 15.3976 231.828 15.5912C231.77 15.7848 231.693 16.0498 231.63 16.2706C231.586 16.4438 231.539 16.6102 231.498 16.7937C231.443 17.0484 231.403 17.3066 231.363 17.5647C231.337 17.7142 231.308 17.8637 231.289 18.0131C231.242 18.4071 231.212 18.8046 231.205 19.1986C231.205 19.3379 231.205 19.4771 231.205 19.6164C231.205 19.8881 231.205 20.1599 231.23 20.4282C231.23 20.5981 231.264 20.7679 231.286 20.931C231.311 21.1721 231.341 21.4167 231.381 21.6545C231.41 21.8277 231.443 21.9941 231.48 22.164C231.531 22.4052 231.59 22.6463 231.652 22.8841C231.696 23.0438 231.74 23.2034 231.788 23.3631C231.869 23.6212 231.964 23.8794 232.063 24.1375C232.111 24.2666 232.155 24.3991 232.21 24.5282C232.368 24.9052 232.54 25.2788 232.735 25.6423C232.771 25.7102 232.815 25.7782 232.856 25.8461C233.021 26.145 233.197 26.4405 233.388 26.7293C233.468 26.8516 233.56 26.9738 233.644 27.0961C233.809 27.3237 233.975 27.5479 234.151 27.7755C234.257 27.9046 234.363 28.0302 234.474 28.1559C234.653 28.3631 234.84 28.5669 235.038 28.7673C235.152 28.8862 235.266 29.0051 235.387 29.107C235.607 29.3142 235.838 29.5146 236.073 29.7116L236.117 29.7524C233.972 32.5242 231.844 35.3084 229.734 38.1051C229.96 36.242 229.773 34.3556 229.184 32.5618C228.595 30.768 227.616 29.1045 226.308 27.6733C225 26.2421 223.39 25.0733 221.577 24.2387C219.764 23.4041 217.786 22.9212 215.764 22.8196L214.12 29.7592L212.337 23.0132C210.42 23.3255 208.589 23.9846 206.947 24.9527C205.305 25.9208 203.886 27.1789 202.77 28.6552C201.972 29.6991 201.338 30.8429 200.888 32.052C199.907 34.6572 199.794 37.4749 200.563 40.1402C201.333 42.8055 202.948 45.1955 205.202 47.0006C207.455 48.8058 210.241 49.9428 213.201 50.2646C216.16 50.5863 219.155 50.0778 221.799 48.805C221.589 49.0937 221.377 49.379 221.168 49.6644C219.01 52.6365 216.329 56.3322 215.665 60.6428C215.206 63.5674 215.712 66.4547 216.325 69.1347C216.729 70.8829 217.191 72.6187 217.712 74.342C217.888 76.5237 218.621 78.6355 219.851 80.5038C220.87 83.0921 222.015 85.6397 223.299 88.1261L224.102 89.6717C224.836 91.061 225.57 92.4876 226.271 93.9278C226.072 93.7852 225.878 93.6391 225.669 93.5033C223.085 91.8221 219.992 90.9447 216.834 90.9978C213.677 91.051 210.62 92.0318 208.104 93.7988L211.897 104.329L204.534 97.3994C203.189 99.3673 202.404 101.619 202.253 103.944C202.102 106.268 202.59 108.591 203.67 110.694C204.751 112.797 206.39 114.612 208.433 115.97C210.477 117.328 212.859 118.185 215.357 118.459L214.315 118.799L212.26 119.451C203.045 122.437 197.722 127.288 197.278 133.11L201.409 133.381C201.842 127.712 209.248 124.489 213.629 123.072C214.293 122.855 214.968 122.644 215.646 122.43C221.483 120.596 228.12 118.517 231.59 113.242C236.832 105.273 231.828 95.6874 227.819 87.9835Z" fill="#F2F2F2"/>
<path d="M76.1086 62.5788L74.2743 62.4531L73.746 62.4055C76.4256 60.5065 78.3285 57.8205 79.1425 54.7883C79.9564 51.7561 79.6331 48.5577 78.2255 45.7181C76.8179 42.8784 74.4096 40.5661 71.3959 39.1605C68.3822 37.755 64.9419 37.3396 61.6397 37.9827L64.5526 42.9793L58.4737 38.9541C58.4605 38.9577 58.4481 38.9634 58.437 38.9711C56.665 39.7351 55.0729 40.8148 53.7517 42.1487C52.4305 43.4826 51.406 45.0444 50.7369 46.745C50.0678 48.4455 49.7671 50.2515 49.8521 52.0597C49.937 53.8679 50.4059 55.6428 51.232 57.2832C51.3494 57.521 51.4888 57.7452 51.6208 57.9625C49.966 57.4112 48.4083 56.6363 46.9984 55.6629C44.2397 53.6826 42.5558 50.7342 40.6114 47.0996C36.7815 39.8849 33.0542 32.5512 29.4443 25.1938C32.3787 23.361 34.5111 20.6195 35.4585 17.4617C36.4059 14.3039 36.1063 10.9368 34.6133 7.96528C34.4226 7.58144 34.2061 7.21798 33.9823 6.85793L33.8136 6.59298C33.5861 6.2533 33.3513 5.91362 33.0982 5.60111C33.0579 5.54676 33.0102 5.49921 32.9698 5.44826C32.7497 5.17991 32.5186 4.92176 32.2838 4.67379L32.0123 4.39526C31.7445 4.13031 31.4694 3.87215 31.1795 3.62758C31.0842 3.54606 30.9814 3.47133 30.8861 3.38981C30.6659 3.21318 30.4385 3.05013 30.2074 2.87689C30.0863 2.79197 29.9689 2.70366 29.8405 2.62213L29.7451 2.5542C26.9141 0.685219 23.4653 -0.206046 19.9981 0.0353597C16.531 0.276766 13.2649 1.63558 10.7676 3.87555L14.5609 10.377L8.54811 6.40955C6.84952 8.87076 6.04545 11.7704 6.25336 14.6849C6.46126 17.5993 7.67026 20.3758 9.70371 22.6088C9.77341 22.6869 9.85045 22.7549 9.92015 22.8296C10.0522 22.9723 10.188 23.1115 10.3274 23.244C10.4668 23.3765 10.6942 23.5837 10.8703 23.7501C11.0464 23.9166 11.1491 23.9981 11.2959 24.117C11.5086 24.2868 11.7288 24.4567 11.9489 24.6095C12.0773 24.7046 12.202 24.8031 12.3341 24.8948C12.6789 25.1292 13.0348 25.3466 13.4016 25.5538C13.53 25.6252 13.6621 25.6863 13.7942 25.7542C14.0473 25.8901 14.3041 26.0226 14.5682 26.1415C14.7333 26.2162 14.8984 26.2807 15.0635 26.3487C15.3056 26.4506 15.5441 26.5457 15.7972 26.6306C15.9733 26.6951 16.1457 26.7529 16.3255 26.8072C16.5749 26.8888 16.8281 26.9601 17.0812 27.028L17.5985 27.1571C17.8846 27.2216 18.1708 27.276 18.4606 27.3236C18.6073 27.3507 18.7504 27.3813 18.8972 27.4017C19.33 27.4628 19.7666 27.5104 20.2068 27.5341C20.2875 27.5341 20.3719 27.5341 20.4563 27.5341C20.8232 27.5341 21.19 27.5545 21.5569 27.5341C21.7109 27.5341 21.8687 27.5172 22.0264 27.507C22.3199 27.507 22.6171 27.4696 22.9106 27.439L23.4242 27.3711C23.7103 27.3303 23.9965 27.2794 24.2789 27.2216C24.4477 27.1911 24.6165 27.1571 24.7852 27.1163C25.0897 27.045 25.3905 26.9601 25.6914 26.8718L25.7537 26.8548C27.2774 29.9595 28.8231 33.0551 30.3908 36.1416C28.7597 35.0311 26.9009 34.2406 24.9283 33.8185C22.9557 33.3964 20.9108 33.3516 18.9188 33.6867C16.9268 34.0219 15.0297 34.73 13.3436 35.7678C11.6575 36.8055 10.218 38.151 9.11307 39.7218L14.7884 44.5045L7.53925 42.5819C6.20055 46.0038 6.38396 49.7778 8.04918 53.0746C8.62729 54.2341 9.38079 55.3115 10.287 56.2743C12.2365 58.3637 14.8192 59.8624 17.7 60.5759C20.5808 61.2893 23.6267 61.1847 26.4424 60.2755C29.2582 59.3663 31.7138 57.6945 33.4907 55.4771C35.2676 53.2596 36.2838 50.5989 36.4073 47.8401C36.5687 48.1526 36.7301 48.4651 36.8952 48.7776C38.6011 51.9876 40.7215 55.9856 44.4194 58.6793C46.9287 60.5033 49.8819 61.5394 52.7031 62.3852C54.5398 62.9354 56.3949 63.4302 58.2683 63.8696C60.3983 64.8167 62.7406 65.2824 65.1028 65.2283C68.0377 65.7038 70.9909 66.0571 73.9588 66.2643L75.7931 66.39C77.4549 66.5021 79.1608 66.6176 80.8557 66.7738C80.6246 66.8621 80.3898 66.947 80.1623 67.0455C77.2991 68.2828 74.9351 70.3313 73.4123 72.8948C71.8896 75.4582 71.2869 78.4037 71.6916 81.3052L83.431 83.5166L73.2728 85.9656C74.443 88.0285 76.1589 89.783 78.2602 91.0652C80.3614 92.3475 82.7795 93.1155 85.2883 93.2977C87.7972 93.4799 90.3149 93.0703 92.6064 92.107C94.8979 91.1438 96.8882 89.6584 98.3915 87.7897C98.3218 88.1294 98.2521 88.4691 98.1787 88.7918C98.0393 89.4711 97.8962 90.1131 97.7641 90.7653C95.9629 99.6513 97.8485 106.34 103.076 109.604L105.391 106.424C100.303 103.248 100.989 95.694 101.836 91.4786C101.965 90.8366 102.104 90.1878 102.243 89.5391C103.454 83.9276 104.8 77.5688 101.62 72.1339C96.7883 63.9613 85.3203 63.1936 76.1086 62.5788Z" fill="#F2F2F2"/>
<path d="M61.1297 186.15H27.012V251.708H61.1297V186.15Z" fill="#3F3D56"/>
<path opacity="0.1" d="M61.1297 186.15H27.012V251.708H61.1297V186.15Z" fill="black"/>
<path d="M219.612 95.1168C219.22 51.9233 181.298 17.0145 134.56 16.9907C87.4188 16.967 49.3904 52.7725 49.3904 96.4008V239.467C49.3904 243.16 50.9751 246.702 53.7958 249.314C56.6166 251.926 60.4424 253.393 64.4315 253.393H219.612C266.618 253.393 304.723 217.432 304.723 173.909C304.723 130.386 266.618 95.1168 219.612 95.1168Z" fill="#F26A21"/>
<path d="M49.0603 202.408H88.0205V253.359H64.1235C60.1343 253.359 56.3085 251.892 53.4878 249.28C50.667 246.669 49.0823 243.126 49.0823 239.433V202.408H49.0603Z" fill="#5F5478"/>
<path d="M102.845 177.041H61.1223V215.672H102.845V177.041Z" fill="#D4A1A1"/>
<path opacity="0.1" d="M102.845 180.777H61.1223V219.408H102.845V180.777Z" fill="black"/>
<path d="M136.277 176.344C136.277 176.344 176.741 193.566 175.487 202.177C174.232 210.788 165.948 211.949 165.948 211.949L141.571 201.012L124.479 188.444L136.277 176.344Z" fill="#5F5478"/>
<path d="M97.2688 194.69C97.5513 196.388 97.72 198.182 97.0523 199.785C96.3186 201.545 94.6861 202.842 93.791 204.541C92.4519 207.061 92.9545 210.169 94.433 212.625C95.9114 215.081 98.2373 216.997 100.629 218.739C104.188 221.314 108.054 223.627 112.369 224.833C117.538 226.273 123.055 226.056 128.448 225.825C129.338 225.831 130.223 225.7 131.067 225.438C131.657 225.192 132.211 224.881 132.718 224.51C135.536 222.615 138.397 220.641 140.301 217.941C141.586 216.088 142.375 213.978 142.602 211.786C142.829 209.595 142.488 207.384 141.607 205.339C139.835 201.341 136.064 198.233 134.78 194.079C133.848 191.062 134.34 187.849 134.329 184.71C134.371 184.184 134.261 183.656 134.01 183.182C133.5 182.4 132.392 182.203 131.412 182.088C124.772 181.283 118.07 180.682 111.363 180.896C107.968 180.991 104.586 181.344 101.253 181.952C99.4516 182.292 95.1153 182.597 94.6494 184.741C94.3779 186.021 95.6069 187.944 95.9811 189.157C96.5332 190.975 96.9633 192.823 97.2688 194.69Z" fill="#FBBEBE"/>
<path opacity="0.1" d="M97.2688 194.69C97.5513 196.388 97.72 198.182 97.0523 199.785C96.3186 201.545 94.6861 202.842 93.791 204.541C92.4519 207.061 92.9545 210.169 94.433 212.625C95.9114 215.081 98.2373 216.997 100.629 218.739C104.188 221.314 108.054 223.627 112.369 224.833C117.538 226.273 123.055 226.056 128.448 225.825C129.338 225.831 130.223 225.7 131.067 225.438C131.657 225.192 132.211 224.881 132.718 224.51C135.536 222.615 138.397 220.641 140.301 217.941C141.586 216.088 142.375 213.978 142.602 211.786C142.829 209.595 142.488 207.384 141.607 205.339C139.835 201.341 136.064 198.233 134.78 194.079C133.848 191.062 134.34 187.849 134.329 184.71C134.371 184.184 134.261 183.656 134.01 183.182C133.5 182.4 132.392 182.203 131.412 182.088C124.772 181.283 118.07 180.682 111.363 180.896C107.968 180.991 104.586 181.344 101.253 181.952C99.4516 182.292 95.1153 182.597 94.6494 184.741C94.3779 186.021 95.6069 187.944 95.9811 189.157C96.5332 190.975 96.9633 192.823 97.2688 194.69Z" fill="black"/>
<path d="M68.4118 192.169C85.9031 192.169 100.083 179.04 100.083 162.845C100.083 146.65 85.9031 133.521 68.4118 133.521C50.9205 133.521 36.741 146.65 36.741 162.845C36.741 179.04 50.9205 192.169 68.4118 192.169Z" fill="#D4A1A1"/>
<path d="M115.289 196.243C132.78 196.243 146.96 183.114 146.96 166.918C146.96 150.723 132.78 137.594 115.289 137.594C97.7977 137.594 83.6182 150.723 83.6182 166.918C83.6182 183.114 97.7977 196.243 115.289 196.243Z" fill="#FBBEBE"/>
<path d="M133.364 150.658C131.999 151.215 130.825 152.108 129.497 152.736C125.678 154.54 121.093 153.959 116.907 153.097C114.687 152.638 112.083 151.738 111.661 149.673C111.21 147.478 113.554 145.705 114.302 143.586C110.753 142.972 107.084 143.591 103.997 145.325C100.141 147.509 97.324 151.378 92.9547 152.438C92.1497 152.678 91.2834 152.678 90.4784 152.438C89.6451 152.077 88.9852 151.445 88.6258 150.661C86.6227 146.826 89.3595 142.437 90.0455 138.222C90.6068 134.71 89.8437 130.651 92.4081 128.011C95.0568 125.294 99.6755 125.684 103.542 124.893C106.19 124.35 108.637 123.171 110.637 121.476C111.179 120.961 111.771 120.492 112.405 120.076C113.224 119.639 114.13 119.359 115.069 119.254C118.719 118.737 122.449 119.432 125.598 121.218C127.799 122.464 129.684 124.237 132.15 124.903C133.47 125.263 134.868 125.273 136.229 125.453C139.035 125.863 141.666 126.976 143.837 128.673C146.007 130.369 147.634 132.584 148.541 135.077C148.864 136.007 149.091 136.986 149.671 137.794C150.819 139.414 153.05 140.022 154.623 141.299C156.197 142.577 157.015 144.486 157.698 146.32C159.496 151.278 160.533 156.445 160.776 161.67C160.908 164.513 160.71 167.604 158.743 169.788C158.277 170.243 157.837 170.719 157.423 171.215C156.061 173.1 156.795 175.631 156.498 177.869C156.253 179.677 155.326 181.346 153.882 182.584C153.542 182.933 153.068 183.144 152.562 183.172C151.975 183.144 151.52 182.689 151.201 182.231C150.078 180.614 149.792 178.627 148.966 176.86C148.141 175.094 146.369 173.406 144.311 173.674C143.786 173.742 143.291 173.932 142.767 174.014C141.299 174.231 139.791 173.464 138.871 172.37C137.95 171.276 137.513 169.9 137.205 168.545C136.332 164.69 136.365 160.732 136.699 156.809C136.827 155.294 137.77 152.601 137.333 151.167C136.897 149.734 134.637 150.135 133.364 150.658Z" fill="white"/>
<path d="M119.031 220.234C114.019 218.377 109.815 215.031 107.079 210.723C105.072 207.544 103.92 203.929 101.642 200.899C98.3218 196.484 92.0596 198.709 86.2596 198.681C78.8307 198.647 72.7592 197.74 66.6584 201.667C62.5936 204.279 58.2207 207.292 57.1201 211.752C56.1479 215.618 57.8832 219.741 56.911 223.61C56.2543 226.219 57.0908 228.617 56.6138 231.263C55.9425 235 55.4032 238.488 57.4686 241.753L64.6003 253.023L142.007 253.295C141.96 253.295 141.864 253.427 141.816 253.427H197.249C197.15 250.999 196.984 248.611 196.148 246.314C195.264 243.937 193.998 241.695 192.74 239.467L178.755 214.741C176.085 210.013 173.161 205.04 168.171 202.37C165.446 200.913 162.302 200.271 159.407 199.167C155.61 197.73 154.594 198.736 150.632 197.751C146.67 196.766 139.318 194.198 137.157 197.411C135.455 199.952 135.954 203.206 135.323 206.137C134.751 208.8 133.225 211.205 131.533 213.427C129.982 215.465 128.232 217.432 126.031 218.862C123.829 220.292 121.54 221.161 119.031 220.234Z" fill="#3F3D56"/>
<path d="M118.807 234.409C118.807 234.409 92.6686 236.27 92.918 241.389C92.918 241.389 117.802 247.673 117.802 247.442C117.802 247.211 118.807 234.409 118.807 234.409Z" fill="#FBBEBE"/>
<path d="M86.6374 223.471C86.6374 223.471 88.6477 238.131 95.9335 240.923C103.219 243.716 126.35 244.181 126.35 244.181L141.93 253.492H65.0185C65.0185 253.492 61.5003 215.108 65.0185 215.108C68.5366 215.108 86.6374 223.471 86.6374 223.471Z" fill="#3F3D56"/>
<path d="M147.712 217.883L165.82 231.847L116.558 233.013C116.558 233.013 109.412 241.165 112.358 243.488C115.304 245.812 129.123 247.442 129.123 247.442L141.941 253.492L195.818 253.431L177.886 223.471L147.712 217.883Z" fill="#3F3D56"/>
<path opacity="0.1" d="M147.712 217.883L165.82 231.847L116.558 233.013C116.558 233.013 109.412 241.165 112.358 243.488C115.304 245.812 129.123 247.442 129.123 247.442L141.941 253.492L195.818 253.431L177.886 223.471L147.712 217.883Z" fill="black"/>
<path d="M157.389 196.358L126.221 220.095L149.095 236.851L174.984 205.434L157.389 196.358Z" fill="#5F5478"/>
<path d="M140.675 222.075C140.675 222.075 161.535 218.583 165.306 216.953C169.077 215.322 184.163 209.273 180.127 213.93C176.092 218.587 174.349 218.814 174.349 218.814C174.349 218.814 189.93 219.979 189.427 222.771C188.924 225.564 187.167 226.029 187.167 226.029C187.167 226.029 193.701 229.521 192.193 230.445C190.685 231.369 191.691 234.633 191.437 235.333C191.184 236.032 193.198 239.749 191.188 240.221C189.178 240.693 167.812 239.755 163.307 238.825C158.802 237.894 138.423 239.056 138.423 239.056L140.675 222.075Z" fill="#E0AAAA"/>
<path d="M43.781 190.773C43.781 190.773 35.7395 199.85 43.781 210.787C51.8226 221.725 68.4118 234.293 77.4622 236.385C86.5126 238.478 146.582 239.412 146.582 239.412C146.582 239.412 149.348 214.276 146.582 213.345C143.816 212.414 94.8036 215.441 88.0167 210.787C81.2298 206.134 60.8693 192.635 54.8418 192.17C51.1316 191.879 47.4399 191.413 43.781 190.773Z" fill="#5F5478"/>
<path d="M89.0081 142.108C86.804 141.249 84.5168 140.586 82.1773 140.128C70.6433 137.882 59.5348 150.437 62.2863 160.875C63.3868 165.087 66.4904 168.987 65.9988 173.301C65.5366 177.401 61.9157 180.689 61.1673 184.751C60.9452 185.672 61.0415 186.635 61.4425 187.503C62.1395 188.81 63.772 189.483 64.5938 190.726C65.9768 192.819 64.4324 195.696 62.1285 196.912C59.8246 198.128 57.0512 198.175 54.4245 198.376C51.1268 198.628 47.8606 199.156 44.6661 199.955C42.8538 200.41 41.0269 200.974 39.5631 202.061C36.1 204.629 35.6231 209.463 36.8887 213.4C38.1544 217.337 40.7847 220.757 42.6814 224.47C44.5781 228.182 45.7116 232.622 43.8407 236.342C41.8817 240.238 36.8447 243.013 37.0501 247.31C37.1052 248.468 37.5674 249.603 37.4794 250.757C37.2849 253.427 34.0713 255.251 31.1951 254.976C28.3189 254.701 25.8647 252.874 24.023 250.805C20.9617 247.367 19.0765 243.161 18.6082 238.726C18.1607 234.419 19.0705 229.996 17.9772 225.788C16.961 221.885 14.327 218.546 12.0562 215.125C4.75577 204.11 0.817845 191.468 0.661569 178.545C0.628552 175.288 0.844996 171.986 1.90888 168.881C3.24424 164.992 5.84159 161.595 7.7786 157.927C9.82933 154.044 14.6242 142.685 18.9567 132.166C21.0943 126.956 24.9991 122.528 30.0851 119.547C35.1711 116.566 41.164 115.193 47.1644 115.633C48.7313 115.792 50.3139 115.757 51.8712 115.532C54.6666 115.029 57.2346 113.755 59.9897 113.069C67.6937 111.153 76.5863 114.533 80.6144 120.922C81.7847 122.78 82.5735 124.849 83.9455 126.585C85.1708 128.134 86.8033 129.353 88.2231 130.749C89.0114 131.524 89.7338 132.354 90.3839 133.232" fill="#3F3D56"/>
<path opacity="0.1" d="M219.612 94.4376C219.22 51.2441 181.297 16.3353 134.56 16.3115C109.005 16.3115 86.1347 26.8212 70.5359 43.4077C85.3046 32.8622 103.437 27.1548 122.087 27.1812C168.824 27.205 206.746 62.1138 207.139 105.307C254.144 105.307 292.25 140.59 292.25 184.113C292.278 203.097 284.877 221.448 271.416 235.768C281.783 228.416 290.181 218.951 295.958 208.108C301.734 197.264 304.733 185.334 304.723 173.243C304.723 129.72 266.617 94.4376 219.612 94.4376Z" fill="black"/>
</g>
<defs>
<clipPath id="clip0">
<rect width="345" height="255" fill="white" transform="translate(0.656982)"/>
</clipPath>
</defs>
</svg>
