<svg width="345" height="255" viewBox="0 0 345 255" fill="none" xmlns="http://www.w3.org/2000/svg">
<g clip-path="url(#clip0)">
<path opacity="0.1" d="M342.839 175.658C339.377 185.455 332.135 194.305 324.36 202.686C317.526 210.055 310.216 217.175 302.429 224.048C300.271 225.956 298.079 227.84 295.852 229.7L294.305 230.984C292.934 232.126 291.539 233.258 290.12 234.378L289.95 234.514C288.574 235.616 287.186 236.707 285.786 237.787C281.206 241.329 276.365 244.845 271.013 247.757C269.189 248.751 267.308 249.677 265.36 250.507C264.306 250.958 263.23 251.38 262.132 251.774C260.333 252.417 258.485 252.979 256.555 253.44C256.233 253.519 255.908 253.594 255.582 253.666C253.607 254.102 251.607 254.421 249.586 254.639C242.179 255.436 234.529 254.853 227.111 253.487C223.403 252.804 219.753 251.924 216.221 250.922C215.786 250.801 215.355 250.675 214.92 250.564C202.894 247.023 191.603 242.216 179.492 238.835C175.318 237.669 171.063 236.68 166.727 235.866C164.612 235.471 162.484 235.113 160.344 234.793C155.308 234.056 150.209 233.563 145.087 233.312C138.182 232.955 131.052 233.109 124.481 234.529C123.606 234.717 122.742 234.929 121.889 235.165C120.807 235.463 119.745 235.803 118.704 236.185C115.896 237.252 113.164 238.576 110.531 240.145C110.012 240.445 109.498 240.749 108.984 241.057C107.373 242.023 105.784 243.01 104.17 243.968C101.266 245.758 98.2428 247.267 95.1314 248.483C93.4272 249.116 91.6941 249.637 89.9404 250.042C85.2994 251.137 80.3607 251.57 75.4006 251.598C73.0087 251.598 70.6138 251.537 68.2462 251.391H68.1733C67.3649 251.341 66.5534 251.283 65.7419 251.212C62.0462 250.915 58.3626 250.457 54.7337 249.831C42.3002 247.685 30.5079 243.629 21.0224 237.44C8.13907 229.041 -0.0425801 216.518 1.18528 204.006C2.06666 194.992 7.54034 186.621 12.7344 178.426C22.3962 163.167 31.447 147.56 36.2095 131.109C40.0724 117.756 41.2243 103.638 50.1141 91.6366C52.9619 87.7949 56.6029 84.2894 60.8426 81.2167C64.0117 78.9332 67.3335 76.9569 70.7749 75.3074C74.6644 73.4324 78.6657 71.8961 82.7465 70.7109C86.2831 69.6783 89.8672 68.8853 93.4811 68.3358C95.4445 68.0353 97.4321 67.8028 99.4319 67.6454C100.972 67.519 102.519 67.4391 104.073 67.4057H104.313C105.263 67.3843 106.214 67.3843 107.164 67.4057C114.093 67.532 121.003 68.2962 127.831 69.6915C132.104 70.5321 136.341 71.5623 140.489 72.6962C142.965 73.3711 145.419 74.0781 147.85 74.8174C148.592 75.0427 149.333 75.2717 150.066 75.5042C167.365 80.9592 182.586 88.4924 199.253 94.6735C199.338 94.7057 199.42 94.7379 199.505 94.7629C202.926 96.0011 206.4 97.0279 209.912 97.8392C212.492 98.4473 215.13 98.9731 217.814 99.4346C221.923 100.15 226.12 100.715 230.347 101.202L231.281 101.309C237.484 102.024 243.741 102.557 249.82 103.18C251.978 103.402 254.117 103.63 256.227 103.895C257.564 104.053 258.889 104.219 260.202 104.396C261.144 104.525 262.089 104.653 263.035 104.789C263.98 104.925 264.98 105.068 265.952 105.215C266.584 105.308 267.214 105.405 267.846 105.508C271.675 106.106 275.495 106.775 279.273 107.54C281.571 108.005 283.856 108.506 286.115 109.046C287.75 109.437 289.371 109.85 290.977 110.284C292.169 110.601 293.35 110.935 294.521 111.285C304.037 114.1 312.942 117.792 320.616 122.775C340.544 135.684 349.462 156.921 342.839 175.658Z" fill="#F26A21"/>
<path opacity="0.1" d="M75.6741 32.3366C79.3048 32.3366 82.248 28.8725 82.248 24.5994C82.248 20.3263 79.3048 16.8623 75.6741 16.8623C72.0435 16.8623 69.1002 20.3263 69.1002 24.5994C69.1002 28.8725 72.0435 32.3366 75.6741 32.3366Z" fill="#F26A21"/>
<path opacity="0.1" d="M210.042 15.4743C213.673 15.4743 216.616 12.0102 216.616 7.73714C216.616 3.46403 213.673 0 210.042 0C206.412 0 203.468 3.46403 203.468 7.73714C203.468 12.0102 206.412 15.4743 210.042 15.4743Z" fill="#F26A21"/>
<path opacity="0.1" d="M289.716 32.8014C293.347 32.8014 296.29 29.3374 296.29 25.0643C296.29 20.7912 293.347 17.3271 289.716 17.3271C286.085 17.3271 283.142 20.7912 283.142 25.0643C283.142 29.3374 286.085 32.8014 289.716 32.8014Z" fill="#F26A21"/>
<path opacity="0.1" d="M11.0173 56.2846C17.1019 56.2846 22.0345 50.4792 22.0345 43.3178C22.0345 36.1565 17.1019 30.3511 11.0173 30.3511C4.9326 30.3511 0 36.1565 0 43.3178C0 50.4792 4.9326 56.2846 11.0173 56.2846Z" fill="#F26A21"/>
<path opacity="0.1" d="M21.5786 120.314C27.6633 120.314 32.5959 114.508 32.5959 107.347C32.5959 100.186 27.6633 94.3804 21.5786 94.3804C15.494 94.3804 10.5614 100.186 10.5614 107.347C10.5614 114.508 15.494 120.314 21.5786 120.314Z" fill="#F26A21"/>
<path opacity="0.1" d="M317.273 96.7445C323.358 96.7445 328.29 90.9391 328.29 83.7778C328.29 76.6164 323.358 70.811 317.273 70.811C311.188 70.811 306.256 76.6164 306.256 83.7778C306.256 90.9391 311.188 96.7445 317.273 96.7445Z" fill="#F26A21"/>
<path d="M107.696 85.6165C107.75 86.7053 107.696 87.7978 107.535 88.8716C106.927 92.1947 104.356 94.4769 101.866 96.2081C99.3772 97.9394 96.6419 99.5777 95.1618 102.5C93.3778 106.031 93.9461 110.777 96.0402 114.075C98.1342 117.373 101.453 119.337 104.869 120.156C111.1 121.67 117.923 119.545 122.594 114.465C127.265 109.386 129.609 101.449 128.463 94.0762C125.928 94.4947 123.67 91.8621 122.849 89.0076C122.029 86.1531 122.199 83.059 121.88 80.065C121.857 79.5587 121.727 79.0671 121.503 78.6342C121.147 78.0547 120.518 77.8186 119.932 77.629C117.002 76.6811 112.072 74.6064 109.036 75.4005C106.301 76.1374 107.65 82.9123 107.696 85.6165Z" fill="#3F3D56"/>
<path opacity="0.1" d="M107.696 85.6165C107.75 86.7053 107.696 87.7978 107.535 88.8716C106.927 92.1947 104.356 94.4769 101.866 96.2081C99.3772 97.9394 96.6419 99.5777 95.1618 102.5C93.3778 106.031 93.9461 110.777 96.0402 114.075C98.1342 117.373 101.453 119.337 104.869 120.156C111.1 121.67 117.923 119.545 122.594 114.465C127.265 109.386 129.609 101.449 128.463 94.0762C125.928 94.4947 123.67 91.8621 122.849 89.0076C122.029 86.1531 122.199 83.059 121.88 80.065C121.857 79.5587 121.727 79.0671 121.503 78.6342C121.147 78.0547 120.518 77.8186 119.932 77.629C117.002 76.6811 112.072 74.6064 109.036 75.4005C106.301 76.1374 107.65 82.9123 107.696 85.6165Z" fill="#F26A21"/>
<path d="M104.155 243.975C101.25 245.765 98.2277 247.274 95.1163 248.49C93.412 249.123 91.679 249.644 89.9252 250.049C89.8012 247.299 89.9285 244.54 90.3051 241.822C90.5422 240.259 90.8917 238.71 90.9829 237.125C91.112 234.838 90.6962 232.554 89.7824 230.529C93.1681 229.986 96.3836 229.098 99.7846 229.36L100 229.377C100.405 229.389 100.805 229.478 101.186 229.639C101.709 229.936 102.153 230.396 102.471 230.969C102.646 231.25 102.808 231.543 102.955 231.846C103.915 233.799 104.28 236.052 104.356 238.374C104.391 240.244 104.324 242.115 104.155 243.975Z" fill="#3F3D56"/>
<path d="M121.877 235.169C120.795 235.467 119.733 235.807 118.692 236.188C115.884 237.256 113.152 238.58 110.519 240.148C110.348 239.174 110.265 238.181 110.27 237.186C111.821 235.927 113.572 235.048 115.417 234.601C117.263 234.155 119.166 234.149 121.014 234.586C121.261 234.621 121.495 234.732 121.694 234.908C121.767 234.983 121.828 235.071 121.877 235.169Z" fill="#3F3D56"/>
<path d="M127.101 217.112C126.895 219.451 126.591 221.798 125.886 223.998C125.123 226.359 123.883 228.648 124.041 231.17C124.111 232.264 124.427 233.452 124.472 234.536C123.597 234.724 122.733 234.936 121.88 235.173C120.798 235.471 119.736 235.81 118.695 236.192C115.887 237.26 113.155 238.584 110.522 240.152C110.002 240.452 109.489 240.756 108.975 241.064C108.762 241.032 108.553 240.992 108.34 240.946C106.82 240.62 105.222 239.819 104.362 238.388C104.165 238.059 104.01 237.697 103.903 237.315C103.407 235.573 103.924 233.402 102.894 232.021L102.845 232.071L102.809 232.1C102.244 232.702 101.624 233.227 100.961 233.667C99.45 234.673 97.7765 235.294 96.0487 235.49C94.3208 235.686 92.5773 235.452 90.9312 234.804C90.279 234.543 89.6491 234.21 89.0499 233.81C87.6579 232.876 86.3146 231.306 86.424 229.431C86.4848 228.387 86.9923 227.385 86.8555 226.352C86.7553 225.611 86.3419 224.996 86.0319 224.341C83.9987 220.049 86.424 214.529 85.1475 209.865C85.1171 209.754 85.0837 209.643 85.0502 209.536C84.956 209.232 84.8496 208.939 84.7463 208.645C84.4849 207.962 84.1932 207.289 83.9622 206.588C83.7698 205.999 83.6174 205.393 83.5063 204.775C83.2194 202.981 83.1173 201.153 83.2024 199.331C83.2024 194.527 83.9318 189.608 84.9712 184.98C85.1566 184.157 85.3633 182.994 85.6368 181.728C85.9034 180.393 86.2633 179.087 86.7127 177.822C87.3206 176.176 88.1472 174.864 89.2778 174.552C90.9798 174.084 93.5814 175.075 95.3077 175.318L102.131 176.277L115.774 178.197C118.129 178.53 120.603 178.913 122.545 180.472C122.673 180.576 122.798 180.683 122.922 180.798C123.435 181.274 123.895 181.824 124.29 182.436C124.43 182.647 124.563 182.869 124.691 183.094C125.134 183.892 125.51 184.738 125.816 185.62C127.509 190.406 127.548 195.746 127.56 200.93C127.56 206.338 127.575 211.743 127.101 217.112Z" fill="#3F3D56"/>
<path opacity="0.1" d="M100.946 233.688C100.535 231.828 99.6691 229.135 99.5415 228.401C99.1133 225.941 98.8028 223.455 98.6115 220.954C98.2741 216.497 97.6663 210.223 99.0035 205.984C100.259 206.771 101.362 208.999 101.942 210.52C104.046 216.032 101.678 222.8 103.654 228.376C103.801 228.71 103.893 229.075 103.924 229.449C103.89 229.925 103.745 230.381 103.505 230.766L102.839 232.068L100.946 233.688Z" fill="#F26A21"/>
<path d="M144.717 63.5137C146.954 59.2213 150.017 55.0004 149.826 49.9818C149.756 48.1933 149.257 46.4441 148.877 44.6913C147.789 39.6186 147.717 34.3174 148.668 29.2063C152.426 28.4957 156.273 29.5097 159.415 32.0394C160.408 32.8478 161.351 33.8529 161.788 35.18C162.192 36.4033 162.126 37.7662 162.053 39.0754C161.885 42.0837 161.657 45.2923 160.083 47.6603C159.594 48.4007 158.992 49.0267 158.515 49.7743C157.819 50.8474 157.412 52.1566 157.014 53.4336L151.847 69.9774C149.239 78.3155 146.413 87.0364 140.668 92.8061C140.529 92.9456 136.414 86.067 136.073 85.3766C134.696 82.5472 135.298 81.3524 136.964 78.9844C140.249 74.3021 142.033 68.6539 144.717 63.5137Z" fill="#3F3D56"/>
<path d="M85.5062 204.524C85.4886 205.759 85.4002 206.991 85.2418 208.212C85.1871 208.663 85.1232 209.11 85.0473 209.557C84.0109 215.924 81.4306 221.98 79.6252 228.183C77.2455 236.371 76.2 243.475 75.3703 251.605C72.9784 251.605 70.5835 251.545 68.2159 251.398H68.143C67.3345 251.348 66.5231 251.291 65.7116 251.219C66.444 243.636 65.1037 235.68 66.4136 228.09C66.9425 225.035 67.8451 222.07 68.3892 219.029C68.5569 218.134 68.6837 217.229 68.7691 216.318C68.845 215.452 68.8845 214.554 69.2158 213.775C69.2461 213.699 69.2806 213.626 69.3192 213.556C69.6102 213.017 69.9711 212.534 70.389 212.126C74.0921 208.304 78.6215 205.762 83.476 204.782C84.1659 204.671 84.8375 204.578 85.5062 204.524Z" fill="#FBBEBE"/>
<path opacity="0.1" d="M85.5062 204.524C85.4886 205.759 85.4002 206.991 85.2418 208.212C85.1871 208.663 85.1232 209.11 85.0473 209.557C84.0109 215.924 81.4306 221.98 79.6252 228.183C77.2455 236.371 76.2 243.475 75.3703 251.605C72.9784 251.605 70.5835 251.545 68.2159 251.398H68.143C67.3345 251.348 66.5231 251.291 65.7116 251.219C66.444 243.636 65.1037 235.68 66.4136 228.09C66.9425 225.035 67.8451 222.07 68.3892 219.029C68.5569 218.134 68.6837 217.229 68.7691 216.318C68.845 215.452 68.8845 214.554 69.2158 213.775C69.2461 213.699 69.2806 213.626 69.3192 213.556C69.6102 213.017 69.9711 212.534 70.389 212.126C74.0921 208.304 78.6215 205.762 83.476 204.782C84.1659 204.671 84.8375 204.578 85.5062 204.524Z" fill="#F26A21"/>
<path d="M70.0972 220.825C70.0481 222.813 69.9091 224.796 69.6808 226.766C68.8693 234.818 68.7174 243.221 68.1612 251.394C67.3528 251.344 66.5413 251.287 65.7298 251.215C62.0341 250.919 58.3505 250.461 54.7217 249.835C55.0013 247.994 55.2829 246.153 55.5666 244.312C55.9131 242.055 56.2595 239.776 56.1592 237.487C56.065 235.323 55.5727 233.216 55.1806 231.095C54.3448 226.552 53.8768 221.651 52.5 217.366C51.782 214.962 50.6359 212.767 49.1386 210.927C54.8341 208.294 60.3078 208.144 66.4258 208.423C66.8601 208.395 67.2918 208.52 67.6658 208.781C67.9557 209.077 68.1712 209.46 68.2888 209.89C69.2082 212.493 69.7852 215.245 69.9999 218.053C70.073 218.974 70.1055 219.899 70.0972 220.825Z" fill="#FBBEBE"/>
<path d="M115.975 83.7705C122.521 83.7705 127.828 77.5247 127.828 69.8201C127.828 62.1155 122.521 55.8696 115.975 55.8696C109.428 55.8696 104.121 62.1155 104.121 69.8201C104.121 77.5247 109.428 83.7705 115.975 83.7705Z" fill="#3F3D56"/>
<path d="M118.439 102.425C119.959 99.3735 121.29 95.564 124.214 94.7162C125.864 94.2333 127.581 94.8915 129.189 95.539C129.655 95.6687 130.078 95.9574 130.405 96.3688C130.642 96.8124 130.77 97.3254 130.773 97.8497C131.282 104.156 131.264 110.506 130.721 116.808C130.335 121.269 129.685 125.708 129.569 130.19C129.408 136.403 130.277 142.616 129.992 148.823C129.776 153.526 128.9 158.148 128.031 162.744L124.384 181.989C124.319 182.584 124.116 183.147 123.798 183.616C123.49 183.948 123.122 184.193 122.722 184.332C117.443 186.528 111.831 187.397 106.249 186.883C100.667 186.368 95.2384 184.482 90.3142 181.345C88.9982 180.494 87.6853 179.51 86.8282 178.058C85.6125 175.997 85.5 173.272 85.8951 170.803C86.2902 168.335 87.1443 166.007 87.7187 163.585C88.6062 159.829 88.8159 155.909 89.0164 152.017C89.2839 146.895 89.5514 141.74 89.0864 136.636C88.7672 133.119 88.1016 129.657 87.6002 126.169C86.8615 120.913 86.433 115.602 86.3176 110.276C86.2416 107.096 86.3662 103.566 88.2354 101.273C89.1471 100.157 90.3628 99.4844 91.5998 98.9407C93.6756 98.0393 95.9946 97.5099 98.0916 98.3326C100.189 99.1553 101.879 101.745 101.383 104.281C101.155 105.458 100.508 106.488 100.35 107.683C100.14 109.264 100.851 110.856 101.869 111.925C107.346 117.749 115.707 107.948 118.439 102.425Z" fill="#E3E8F4"/>
<path d="M118.874 88.1705C120.537 87.4494 122.345 87.325 124.068 87.8128C125.165 88.1204 126.351 88.6642 127.363 88.0883C127.73 87.8808 128.034 87.541 128.405 87.3478C129.408 86.8291 130.709 87.4659 131.596 86.7111C132.156 86.2353 132.338 85.3697 132.526 84.5828C133.439 80.8264 135.309 77.4902 137.885 75.0249C137.565 77.7685 137.334 80.8913 138.875 82.9874C139.577 83.9389 140.562 84.5363 141.559 85.0013C142.99 85.6702 144.562 86.1137 146.072 85.7489C147.583 85.384 148.996 84.039 149.236 82.2469C149.184 84.9405 147.005 86.822 146.394 89.4225C146.163 90.3954 146.185 91.4292 146.024 92.4236C145.613 94.9633 144.072 97.0022 142.726 99.0483C138.426 105.629 135.679 113.43 134.763 121.662C134.701 122.639 134.527 123.602 134.247 124.524C133.949 125.231 133.612 125.915 133.238 126.57C131.01 130.998 131.697 136.586 132.453 141.644C133.636 149.567 134.815 157.329 136.73 165.052C137.058 166.372 137.429 167.749 138.264 168.711C138 171.834 135.322 173.258 132.915 174.606C130.539 175.94 128.346 177.687 126.411 179.789C125.718 180.54 125.035 181.385 124.782 182.454C124.545 183.459 124.715 184.565 124.412 185.541C124.108 186.518 122.892 187.219 122.357 186.396C121.688 183.452 122.831 180.372 122.779 177.325C122.743 175.268 122.172 173.268 122.09 171.212C122.011 168.883 122.594 166.597 123.214 164.387C124.94 158.23 127.025 152.132 127.624 145.689C128.223 139.247 127.104 132.211 123.22 127.615C118.61 122.135 116.051 114.705 111.109 109.672C110.325 108.874 109.437 107.884 109.568 106.675C109.658 106.142 109.857 105.644 110.148 105.222C111.844 102.404 114.099 100.104 115.923 97.4064C117.746 94.7094 119.205 91.6045 118.874 88.1705Z" fill="#3F3D56"/>
<path d="M102.648 93.9405C102.344 94.2982 102.134 94.7918 101.781 95.0994C101.37 95.3985 100.9 95.5696 100.417 95.5966C98.6281 95.9164 96.8244 96.1063 95.016 96.1654C93.4963 96.1654 91.919 96.008 90.4571 96.498C88.4178 97.1777 86.7887 99.0735 85.7676 101.256C84.7464 103.438 84.2631 105.906 83.8711 108.363C83.0068 113.777 82.5441 119.27 82.4882 124.778C84.9934 122.427 87.2259 119.699 89.129 116.665C90.5878 114.337 91.9099 111.761 93.9917 110.205C94.9491 109.49 96.025 109.018 96.9884 108.32C98.9974 106.864 100.389 104.511 101.727 102.239C102.711 100.554 105.559 97.2635 105.784 95.2461C105.975 93.3181 103.711 92.3773 102.648 93.9405Z" fill="#3F3D56"/>
<path d="M113.236 60.2693C113.612 60.5346 113.971 60.8298 114.312 61.1528C116.376 62.8484 119.138 62.5336 121.634 62.1473C122.4 62.0328 123.187 61.904 123.843 61.4318C124.898 60.6664 125.393 59.0925 125.29 57.6366C125.187 56.1808 124.564 54.8394 123.804 53.7019C122.797 52.1966 121.541 50.9474 120.113 50.0301C118.684 49.1127 117.112 48.5462 115.491 48.3649C114.652 48.2355 113.799 48.3421 113.002 48.6761C112.021 49.1519 111.282 50.132 110.376 50.7866C107.705 52.7182 103.59 51.8597 101.866 54.9431C100.605 57.2181 101.505 60.3087 100.909 62.9235C100.465 64.8765 99.1858 66.6543 99.432 68.6467C99.5688 69.7199 100.14 70.657 100.596 71.6157C101.643 73.8196 102.127 76.3322 101.991 78.852C103.161 79.825 104.793 78.3119 105.118 76.6736C105.444 75.0353 105.07 73.2897 105.346 71.6371C105.836 68.7362 108.012 66.6078 108.993 63.9465C109.699 62.0399 110.847 58.8206 113.236 60.2693Z" fill="#3F3D56"/>
<path d="M84.4971 92.0229C84.4059 92.6739 84.3482 93.3929 84.6552 93.9438C85.263 95.0169 86.655 94.6306 87.7491 94.7915C89.4541 95.0383 90.7124 96.9378 91.0437 98.9337C91.3749 100.93 90.9798 102.961 90.5483 104.922C89.5716 109.364 88.4086 113.744 87.0592 118.06C83.4303 117.556 79.61 115.914 77.6831 112.269C75.9325 108.953 76.1118 104.729 74.9995 101.051C74.2184 98.4616 72.8173 96.208 71.4314 93.9974C73.6592 94.3265 75.2517 91.329 75.3824 88.6891C75.5131 86.0492 74.808 83.3701 75.2882 80.791C75.4007 80.1793 84.181 82.1073 85.0351 82.8049C87.5029 84.8187 84.8861 89.2257 84.4971 92.0229Z" fill="#FBBEBE"/>
<path opacity="0.1" d="M84.4971 92.0229C84.4059 92.6739 84.3482 93.3929 84.6552 93.9438C85.263 95.0169 86.655 94.6306 87.7491 94.7915C89.4541 95.0383 90.7124 96.9378 91.0437 98.9337C91.3749 100.93 90.9798 102.961 90.5483 104.922C89.5716 109.364 88.4086 113.744 87.0592 118.06C83.4303 117.556 79.61 115.914 77.6831 112.269C75.9325 108.953 76.1118 104.729 74.9995 101.051C74.2184 98.4616 72.8173 96.208 71.4314 93.9974C73.6592 94.3265 75.2517 91.329 75.3824 88.6891C75.5131 86.0492 74.808 83.3701 75.2882 80.791C75.4007 80.1793 84.181 82.1073 85.0351 82.8049C87.5029 84.8187 84.8861 89.2257 84.4971 92.0229Z" fill="#F26A21"/>
<path d="M82.5428 87.7056C89.0891 87.7056 94.3959 81.4598 94.3959 73.7551C94.3959 66.0505 89.0891 59.8047 82.5428 59.8047C75.9966 59.8047 70.6898 66.0505 70.6898 73.7551C70.6898 81.4598 75.9966 87.7056 82.5428 87.7056Z" fill="#FBBEBE"/>
<path d="M78.8928 90.0197C79.3243 89.2256 78.5888 88.1167 78.9262 87.2618C79.1268 86.7467 79.6343 86.5249 80.0264 86.1887C80.5181 85.7177 80.9103 85.119 81.1722 84.4395C83.0176 80.266 83.5762 75.4685 82.7526 70.8646C82.473 69.3193 82.2238 67.2661 83.4243 66.5722C83.757 66.3974 84.1217 66.3236 84.485 66.3575C86.6489 66.4398 88.7399 68.1461 90.84 67.5415C91.5569 67.3122 92.1971 66.8306 92.675 66.1613C93.153 65.492 93.4459 64.6669 93.5146 63.7964C93.6513 61.4856 92.1804 59.5039 90.7337 57.9479C88.129 55.1292 84.1598 54.5032 80.6221 54.4353L74.0421 54.3065C71.9359 54.2636 69.5744 54.3423 68.1095 56.1201C66.0003 58.6776 67.061 62.8628 66.7571 66.4076C66.4987 69.2369 65.2962 71.8295 63.4139 73.6154C62.0493 74.8959 60.171 76.1193 60.1953 78.1653C60.1953 78.8808 60.4567 79.5318 60.6239 80.2078C61.2955 82.8835 60.6542 85.8417 59.3656 88.1846C58.077 90.5276 56.1926 92.3304 54.2384 93.9079C53.1929 94.7485 52.1109 95.5569 51.2843 96.698C50.378 98.016 49.8398 99.6314 49.7434 101.323C49.6133 102.616 49.8391 103.924 50.3877 105.054C51.6733 107.472 54.7581 107.826 56.8704 106.424C58.9827 105.022 60.2713 102.368 61.1253 99.6991C61.6359 98.1145 62.1556 96.301 63.4625 95.5891C65.1159 94.6841 67.0488 96.1149 68.1247 97.8498C69.2006 99.5847 69.8632 101.702 71.2399 103.112C73.3978 105.322 77.0692 104.965 78.8928 102.368C80.1966 100.504 80.4853 97.9249 80.4124 95.5104C80.3761 93.544 79.8475 91.634 78.8928 90.0197Z" fill="#3F3D56"/>
<path d="M83.1477 108.202C81.7952 108.542 80.382 107.791 79.376 106.667C78.37 105.544 77.6923 104.096 76.9871 102.693C75.1995 99.1565 73.1502 95.8121 70.8631 92.6991C68.8693 89.9913 66.0945 87.2406 63.1343 88.0776C62.1431 88.4143 61.2235 88.9932 60.4354 89.7767C57.8253 92.209 55.7823 95.3809 54.4976 98.9957C53.2128 102.61 52.7284 106.55 53.0895 110.445C53.3205 112.723 53.8463 114.952 54.0651 117.241C54.2125 119.128 54.2552 121.024 54.1928 122.918C54.1107 128.684 53.9436 134.783 51.3025 139.641C47.2086 147.152 45.0173 156.124 42.0115 164.322C40.3885 168.754 39.416 173.472 38.4617 178.165C37.8964 180.951 37.3321 183.735 36.7688 186.518L33.0913 204.725C32.7114 206.603 32.3315 208.57 32.7327 210.448C33.3405 213.253 35.5804 215.213 37.9419 216.01C40.3034 216.808 42.8047 216.672 45.2574 216.697C49.95 216.751 54.6791 217.438 59.0829 219.355C60.3412 219.902 61.5964 220.557 62.9367 220.686C64.277 220.814 65.6112 220.403 66.8665 219.831C70.2917 218.271 73.2276 215.538 76.3823 213.331C78.3529 211.934 80.4283 210.752 82.5824 209.801C83.6644 209.325 84.8254 208.874 85.57 207.833C86.1322 207.05 86.3845 206.027 86.5699 205.025C87.5972 199.388 86.9072 193.547 86.5699 187.795C86.2325 182.043 83.3118 175.965 85.728 170.95C86.2143 169.938 86.7948 168.965 87.044 167.842C87.3723 166.375 87.0957 164.798 87.3722 163.317C87.5759 162.223 88.0652 161.239 88.3995 160.191C88.9831 158.345 89.0621 156.335 89.056 154.364C89.0423 150.036 88.6553 145.722 87.9011 141.486C86.9437 136.121 90.1106 130.816 91.925 125.747C92.5754 123.934 93.4963 122.22 93.7668 120.278C94.01 118.525 93.6969 116.74 93.4629 114.984C93.1136 112.262 92.9712 109.509 93.0374 106.757C93.0952 104.289 93.317 101.774 92.8155 99.3739C92.3141 96.9737 90.8826 94.645 88.825 94.1514C88.5943 94.0718 88.3515 94.0533 88.114 94.0972C87.8764 94.1411 87.6501 94.2464 87.4513 94.4054C87.2138 94.6795 87.0463 95.0265 86.968 95.407C86.2994 97.8179 86.4301 100.415 86.0563 102.919C85.6824 105.423 85.2448 107.673 83.1477 108.202Z" fill="#F86D70"/>
<path d="M54.4664 123.565C54.591 122.574 54.1989 121.258 53.3479 121.294C52.5638 121.329 52.2143 122.485 52.2173 123.411C52.2204 124.338 52.3268 125.4 51.7706 126.051C51.2782 126.627 50.4637 126.609 49.8923 127.078C49.6907 127.247 49.5266 127.471 49.4139 127.731C49.3012 127.99 49.2433 128.278 49.245 128.569C49.245 129.067 49.4364 129.542 49.4486 130.04C49.4607 130.537 49.1781 131.113 48.7587 131.08C48.5433 131.506 48.4536 132.003 48.5036 132.495C48.5536 132.987 48.7406 133.445 49.0352 133.799C49.2541 134.049 49.5398 134.264 49.6127 134.615C49.6358 134.86 49.6193 135.109 49.5641 135.348C49.4364 136.332 50.0139 137.433 50.8558 137.541C50.3847 137.938 50.4789 138.868 50.9105 139.329C51.342 139.791 51.962 139.88 52.5425 139.88C53.86 139.871 55.1629 139.554 56.375 138.946C56.7901 138.785 57.1571 138.487 57.4327 138.088C57.5605 137.882 57.6219 137.629 57.6057 137.375C57.5896 137.121 57.497 136.881 57.3446 136.7C57.9342 136.814 58.6423 136.879 59.0283 136.342C59.5663 135.591 58.9888 134.479 58.4205 133.753C58.6562 133.711 58.8764 133.589 59.0537 133.402C59.2311 133.215 59.3578 132.97 59.418 132.699C59.4782 132.428 59.4694 132.141 59.3925 131.876C59.3157 131.61 59.1742 131.377 58.9858 131.206C58.7912 131.038 58.5268 130.891 58.4995 130.608C58.4721 130.326 58.6758 130.143 58.7609 129.893C58.9554 129.331 58.5116 128.759 58.0831 128.419C57.068 127.625 55.5727 127.639 54.67 126.838C53.7674 126.037 54.3357 124.638 54.4664 123.565Z" fill="#3F3D56"/>
<path d="M117.166 69.2871C116.43 69.3744 115.689 69.3947 114.95 69.3479C114.824 69.3317 114.698 69.3744 114.599 69.4667C114.499 69.559 114.434 69.6937 114.418 69.8416L113.005 82.3183C112.896 83.224 112.581 84.0781 112.093 84.79C111.691 85.3565 111.392 86.0144 111.215 86.7226C111.038 87.4309 110.986 88.1744 111.063 88.9072V110.101C111.063 110.101 110.972 112.927 112.817 112.927C115.025 113.254 117.259 113.254 119.467 112.927C119.467 112.927 120.944 112.598 120.944 109.99V89.1218C121.056 88.3937 121.033 87.6455 120.876 86.929C120.718 86.2126 120.43 85.5449 120.032 84.9724C119.56 84.2579 119.255 83.4108 119.148 82.515L117.68 69.7772C117.663 69.634 117.601 69.5036 117.505 69.4126C117.41 69.3216 117.288 69.2767 117.166 69.2871Z" fill="#3F3D56"/>
<path opacity="0.1" d="M117.166 69.2871C116.43 69.3744 115.689 69.3947 114.95 69.3479C114.824 69.3317 114.698 69.3744 114.599 69.4667C114.499 69.559 114.434 69.6937 114.418 69.8416L113.005 82.3183C112.896 83.224 112.581 84.0781 112.093 84.79C111.691 85.3565 111.392 86.0144 111.215 86.7226C111.038 87.4309 110.986 88.1744 111.063 88.9072V110.101C111.063 110.101 110.972 112.927 112.817 112.927C115.025 113.254 117.259 113.254 119.467 112.927C119.467 112.927 120.944 112.598 120.944 109.99V89.1218C121.056 88.3937 121.033 87.6455 120.876 86.929C120.718 86.2126 120.43 85.5449 120.032 84.9724C119.56 84.2579 119.255 83.4108 119.148 82.515L117.68 69.7772C117.663 69.634 117.601 69.5036 117.505 69.4126C117.41 69.3216 117.288 69.2767 117.166 69.2871Z" fill="#F26A21"/>
<path d="M117.175 89.2866H114.935C113.08 89.2866 111.577 91.0563 111.577 93.2393V103.158C111.577 105.341 113.08 107.111 114.935 107.111H117.175C119.03 107.111 120.533 105.341 120.533 103.158V93.2393C120.533 91.0563 119.03 89.2866 117.175 89.2866Z" fill="#F26A21"/>
<path d="M147.276 15.374C146.626 15.7942 145.949 16.153 145.252 16.4471C145.131 16.4896 145.029 16.5857 144.967 16.7152C144.905 16.8447 144.888 16.9974 144.92 17.1411L147.698 29.303C147.897 30.1857 147.889 31.1153 147.674 31.9929C147.487 32.6979 147.425 33.4408 147.493 34.1752C147.561 34.9095 147.757 35.6193 148.069 36.2603L155.005 55.8196C155.005 55.8196 155.843 58.4666 157.548 57.6296C159.695 56.9287 161.758 55.912 163.688 54.6034C163.688 54.6034 164.943 53.6304 164.092 51.2267L157.263 31.9679C157.128 31.2448 156.862 30.5646 156.483 29.9742C156.104 29.3839 155.62 28.8973 155.065 28.5482C154.397 28.1031 153.839 27.4608 153.445 26.6846L147.923 15.5958C147.861 15.4675 147.758 15.3728 147.637 15.3314C147.517 15.2901 147.387 15.3053 147.276 15.374Z" fill="#3F3D56"/>
<path d="M153.833 33.8303L151.766 34.8455C150.055 35.6862 149.246 38.0008 149.96 40.0155L153.206 49.1696C153.92 51.1842 155.887 52.1358 157.598 51.2952L159.666 50.28C161.377 49.4393 162.186 47.1246 161.472 45.11L158.226 35.9559C157.512 33.9413 155.545 32.9896 153.833 33.8303Z" fill="#F26A21"/>
<path d="M61.9855 90.3883C58.7183 91.9729 57.4266 96.902 58.1925 100.958C58.9584 105.015 61.2652 108.395 63.5142 111.611L69.8176 120.661C71.5591 123.165 73.4647 125.801 76.121 126.674C80.0052 127.951 83.8893 125.039 87.2477 122.406C97.2723 114.544 107.988 107.977 119.208 102.818C120.306 102.318 121.43 101.81 122.333 100.915C124.205 99.0626 124.731 95.6465 123.688 93.046C122.646 90.4455 120.217 88.7535 117.771 88.7321C115.324 88.7106 112.945 90.2344 111.474 92.5381C110.771 93.6362 110.258 94.8917 109.58 96.0078C107.866 98.8122 105.191 100.547 102.575 102.114C96.2651 105.903 89.7699 109.247 83.1234 112.129C81.9077 112.652 80.537 113.149 79.3913 112.459C78.6892 112.033 78.2151 111.228 77.7896 110.441C75.8506 106.849 74.3085 102.981 73.2003 98.9302C72.3706 95.8897 71.6989 92.5774 69.7052 90.4169C66.8787 87.3549 61.7606 88.0882 59.6422 91.8477C59.6422 91.8477 57.1592 96.1222 58.6788 97.9108C60.1984 99.6993 61.9855 90.3883 61.9855 90.3883Z" fill="#FBBEBE"/>
<path d="M232.438 75.5866C232.882 76.9781 232.894 78.5019 232.83 79.9864C232.751 81.7963 232.365 83.9211 230.937 84.6115C230.007 85.0514 228.858 84.7188 228.032 85.3841C227.029 86.1854 227.077 87.9095 227.232 89.3188C227.661 93.1928 228.144 97.2098 229.937 100.486C230.901 102.243 232.204 103.706 233.526 105.104C236.161 107.902 239.052 110.634 242.513 111.568C243.077 111.755 243.671 111.785 244.246 111.654C244.813 111.448 245.328 111.079 245.744 110.581C247.75 108.413 248.783 105.319 250.121 102.515C251.066 100.508 252.193 98.5798 252.725 96.3692C253.163 94.4377 253.134 92.4005 252.641 90.4874C252.148 88.5743 251.211 86.8613 249.935 85.5415C249.343 84.9441 248.686 84.4433 248.112 83.8245C246.61 82.222 245.735 79.922 245.376 77.5754C245.018 75.2289 245.073 72.8144 245.246 70.4213C242.207 70.1459 239.189 70.5787 236.222 71.2763C234.903 71.5875 233.046 71.7305 231.852 72.471C230.508 73.3116 232.071 74.3883 232.438 75.5866Z" fill="#FBBEBE"/>
<path opacity="0.1" d="M232.438 75.5866C232.882 76.9781 232.894 78.5019 232.83 79.9864C232.751 81.7963 232.365 83.9211 230.937 84.6115C230.007 85.0514 228.858 84.7188 228.032 85.3841C227.029 86.1854 227.077 87.9095 227.232 89.3188C227.661 93.1928 228.144 97.2098 229.937 100.486C230.901 102.243 232.204 103.706 233.526 105.104C236.161 107.902 239.052 110.634 242.513 111.568C243.077 111.755 243.671 111.785 244.246 111.654C244.813 111.448 245.328 111.079 245.744 110.581C247.75 108.413 248.783 105.319 250.121 102.515C251.066 100.508 252.193 98.5798 252.725 96.3692C253.163 94.4377 253.134 92.4005 252.641 90.4874C252.148 88.5743 251.211 86.8613 249.935 85.5415C249.343 84.9441 248.686 84.4433 248.112 83.8245C246.61 82.222 245.735 79.922 245.376 77.5754C245.018 75.2289 245.073 72.8144 245.246 70.4213C242.207 70.1459 239.189 70.5787 236.222 71.2763C234.903 71.5875 233.046 71.7305 231.852 72.471C230.508 73.3116 232.071 74.3883 232.438 75.5866Z" fill="#F26A21"/>
<path d="M215.48 86.1138C210.544 84.1214 208.185 76.3377 203.019 75.465C202.204 75.3254 201.368 75.3791 200.569 75.1573C197.594 74.3275 196.314 70.2782 195.454 66.8264C192.555 55.3191 188.768 44.0585 183.388 33.8568C181.118 29.5644 177.528 26.0374 175.89 21.3372C175.513 20.2641 175.322 19.0407 174.644 18.193C173.966 17.3452 172.517 17.2236 172.149 18.3038C172.046 18.6865 172.024 19.0926 172.082 19.4878L172.438 23.9413L166.256 23.2867C165.684 23.1719 165.097 23.221 164.545 23.4297C163.948 23.781 163.473 24.3634 163.198 25.0788C161.107 29.7039 163.335 35.7634 167.025 38.6894C171.334 42.1055 177.489 42.6241 180.352 47.7214C182.054 50.7548 182.087 54.6573 183.209 58.0448C183.744 59.6652 184.525 61.1532 185.148 62.7235C186.336 65.7175 186.944 68.9726 187.865 72.0918C189.184 76.5524 191.138 80.7089 193.086 84.8404C194.588 88.0311 196.126 91.279 198.435 93.7186C199.955 95.3211 201.742 96.5087 203.529 97.6533C207.924 100.479 213.106 103.198 217.762 101.03C218.029 96.1438 216.987 90.696 215.48 86.1138Z" fill="#FBBEBE"/>
<path d="M230.466 240.098C230.092 244.766 227.685 248.994 227.123 253.487C223.415 252.804 219.765 251.924 216.233 250.922C215.799 250.801 215.367 250.675 214.932 250.565C216.932 244.126 215.191 236.915 215.72 230.057C215.771 229.399 215.844 228.741 215.942 228.09C220.522 226.251 224.658 223.798 229.46 224.513C229.554 225.658 229.652 226.806 229.746 227.95C229.938 230.237 230.129 232.522 230.317 234.804C230.51 236.559 230.56 238.332 230.466 240.098Z" fill="#FBBEBE"/>
<path d="M262.141 251.774C260.342 252.417 258.494 252.979 256.564 253.441C256.242 253.519 255.917 253.594 255.591 253.666C253.616 254.102 251.616 254.421 249.595 254.639C249.388 249.667 246.556 245.095 246.142 239.991C246.058 238.722 246.069 237.448 246.176 236.181C246.212 235.681 246.255 235.18 246.294 234.679L247.152 224.388C247.834 224.287 248.522 224.247 249.209 224.27C253.16 224.381 256.756 226.395 260.67 227.965C260.962 230.136 261.064 232.337 260.974 234.532C260.825 240.12 260.062 245.775 261.825 250.901C261.925 251.191 262.035 251.48 262.141 251.774Z" fill="#FBBEBE"/>
<path d="M210.839 173.315C211.37 178.194 209.252 182.866 208.334 187.662C207.726 190.835 207.644 194.101 207.562 197.356L207.082 216.855C207.033 218.804 206.991 220.789 207.495 222.66C208.51 226.409 211.638 228.941 214.893 229.843C218.148 230.744 221.552 230.286 224.868 229.771C226.494 229.517 228.19 229.22 229.536 228.115C231.387 226.595 232.195 223.887 232.894 221.362L234.867 214.233C237.137 220.249 236.177 226.827 237.538 233.212C237.626 233.803 237.834 234.359 238.146 234.833C238.721 235.584 239.666 235.702 240.526 235.774C246.483 236.267 252.522 236.757 258.381 235.416C259.992 235.058 261.673 234.479 262.785 233.055C264.08 231.399 264.305 228.963 264.29 226.713C264.208 218.983 261.834 211.525 261.305 203.82C261.077 200.518 261.19 197.199 261.089 193.886C261.011 191.395 260.813 188.911 260.497 186.446C260.396 185.317 260.133 184.216 259.719 183.191C258.807 181.188 256.914 180.101 255.12 179.256C241.188 172.596 225.865 172.66 210.839 173.315Z" fill="#F86D70"/>
<path d="M236.633 77.3319C243.85 77.3319 249.701 70.4454 249.701 61.9506C249.701 53.4558 243.85 46.5693 236.633 46.5693C229.415 46.5693 223.564 53.4558 223.564 61.9506C223.564 70.4454 229.415 77.3319 236.633 77.3319Z" fill="#FBBEBE"/>
<path d="M248.024 89.0433C247.054 91.5473 245.528 94.0512 243.258 94.6879C241.17 95.2781 238.958 94.0941 237.42 92.3306C235.882 90.5671 234.876 88.2778 233.809 86.0851C233.031 84.4826 232.165 82.8658 230.849 81.8571C229.05 80.4835 226.728 80.5193 224.606 80.9235C222.485 81.3277 220.379 82.0502 218.224 81.8857C215.54 81.6746 212.805 80.0972 210.273 81.1488C211.094 85.4699 210.799 90.2202 210.705 94.6486C210.721 95.3323 210.639 96.0144 210.462 96.666C210.241 97.2736 209.942 97.838 209.577 98.3401L207.146 102.028C209.754 104.324 212.009 107.322 212.92 111.003C213.434 113.099 213.276 115.324 213.258 117.506C213.2 123.912 214.382 130.294 214.008 136.686C213.571 144.173 211.03 151.248 209.72 158.592C208.598 164.896 208.386 171.378 209.094 177.765C222.716 183.313 236.751 186.153 251.151 187.083C253.695 187.247 256.442 187.272 258.53 185.552C260.266 184.121 261.238 181.671 261.57 179.203C261.901 176.734 261.673 174.223 261.442 171.741C260.816 165.028 260.191 158.315 259.567 151.602C259.211 147.782 258.856 143.94 259.087 140.109C259.26 137.248 259.758 134.44 260.254 131.639L263.293 114.447C263.727 112.004 264.165 109.543 265.025 107.265C265.73 105.405 266.706 103.688 267.484 101.878C268.411 99.7075 269.051 97.3829 269.38 94.9848C269.512 94.2887 269.504 93.5659 269.356 92.8743C269.031 91.7011 268.037 90.9964 267.11 90.4205C261.458 86.9242 255.4 84.4234 249.13 82.9981C248.704 85.105 248.787 87.0795 248.024 89.0433Z" fill="#E3E8F4"/>
<path d="M246.762 78.7414C248.282 75.3146 251.124 72.9109 252.774 69.5628C253.686 67.6646 254.196 65.5357 254.261 63.3563C254.325 61.177 253.942 59.0114 253.145 57.0431C252.564 55.6481 251.777 54.3675 251.321 52.9081C250.814 51.2483 250.765 49.4205 250.179 47.7965C249.373 45.5716 247.629 43.969 245.729 43.0462C243.83 42.1233 241.778 41.7906 239.733 41.4687L232.828 40.3741C231.828 40.2167 230.791 40.0593 229.819 40.3741C228.846 40.6889 227.94 41.6225 227.861 42.8101C227.767 44.2159 228.816 45.5251 228.573 46.9058C228.484 47.3923 228.241 47.8859 228.381 48.3581C228.506 48.6735 228.721 48.9269 228.989 49.0735C230.627 50.1466 232.584 50.2432 234.359 50.9443C236.134 51.6454 237.915 53.4053 237.736 55.5944C237.639 56.7713 236.994 57.9946 237.432 59.0498C237.851 60.0264 238.952 60.2052 239.83 60.5093C242.672 61.4787 244.665 65.1058 244.252 68.5576C244.124 69.6307 243.796 70.6573 243.729 71.734C243.507 75.5042 244.012 76.5809 246.629 78.7736L246.762 78.7414Z" fill="#3F3D56"/>
<path d="M264.515 95.0454C264.529 95.7594 264.418 96.4692 264.19 97.1308C263.241 99.5096 260.339 99.3593 258.415 100.708C256.02 102.389 255.491 106.141 255.272 109.411C255.023 113.113 254.853 116.869 255.497 120.5C256.142 124.13 257.692 127.672 260.281 129.8C263.433 132.379 267.718 132.468 271.317 130.898C274.915 129.328 277.921 126.291 280.528 122.971C283.002 119.824 285.218 116.314 286.546 112.319C286.78 111.604 286.987 110.845 286.798 110.13C286.516 109.057 285.522 108.57 284.714 107.984C282.826 106.642 281.568 104.303 280.914 101.831C280.261 99.3593 280.152 96.7302 280.13 94.1369C280.106 91.4433 280.1 88.4994 278.641 86.4212C277.182 84.3429 274.654 83.7599 272.35 83.7813C270.466 83.7813 265.25 83.9924 263.965 85.9276C262.91 87.5372 264.591 92.7418 264.515 95.0454Z" fill="#3F3D56"/>
<path opacity="0.1" d="M264.515 95.0454C264.529 95.7594 264.418 96.4692 264.19 97.1308C263.241 99.5096 260.339 99.3593 258.415 100.708C256.02 102.389 255.491 106.141 255.272 109.411C255.023 113.113 254.853 116.869 255.497 120.5C256.142 124.13 257.692 127.672 260.281 129.8C263.433 132.379 267.718 132.468 271.317 130.898C274.915 129.328 277.921 126.291 280.528 122.971C283.002 119.824 285.218 116.314 286.546 112.319C286.78 111.604 286.987 110.845 286.798 110.13C286.516 109.057 285.522 108.57 284.714 107.984C282.826 106.642 281.568 104.303 280.914 101.831C280.261 99.3593 280.152 96.7302 280.13 94.1369C280.106 91.4433 280.1 88.4994 278.641 86.4212C277.182 84.3429 274.654 83.7599 272.35 83.7813C270.466 83.7813 265.25 83.9924 263.965 85.9276C262.91 87.5372 264.591 92.7418 264.515 95.0454Z" fill="#F26A21"/>
<path d="M248.309 190.975C248.403 191.52 248.622 192.024 248.942 192.434C249.242 192.713 249.592 192.908 249.966 193.003C259.941 196.448 270.596 195.074 280.924 193.668C279.51 188.603 278.088 183.481 277.696 178.169C277.371 173.787 277.735 169.226 276.416 165.116C276.027 163.9 253.355 169.498 251.118 169.953C249.972 170.185 248.653 170.106 247.841 171.176C246.863 172.471 246.781 175.554 246.677 177.167C246.386 181.828 247.203 186.521 248.309 190.975Z" fill="#3F3D56"/>
<path d="M271.022 247.757C269.198 248.751 267.317 249.678 265.369 250.507C264.315 250.958 263.239 251.38 262.141 251.774C260.342 252.418 258.494 252.979 256.564 253.441C255.464 250.157 254.363 246.872 253.26 243.586C252.449 241.168 251.637 238.739 250.96 236.267C250.488 234.579 250.101 232.861 249.799 231.12C248.804 225.203 249.063 219.088 250.552 213.317C254.765 214.251 258.883 214.859 263.032 215.567C265.247 215.925 267.469 216.347 269.718 216.844C269.894 218.568 270.054 220.292 270.198 222.016C270.417 224.678 270.596 227.339 270.736 230C271.046 235.914 271.141 241.833 271.022 247.757Z" fill="#3F3D56"/>
<path opacity="0.1" d="M271.022 247.757C269.198 248.751 267.317 249.678 265.369 250.507C264.315 250.958 263.239 251.38 262.141 251.774C260.342 252.418 258.494 252.979 256.564 253.441C255.464 250.157 254.363 246.872 253.26 243.586C252.449 241.168 251.637 238.739 250.96 236.267C250.488 234.579 250.101 232.861 249.799 231.12C248.804 225.203 249.063 219.088 250.552 213.317C254.765 214.251 258.883 214.859 263.032 215.567C265.247 215.925 267.469 216.347 269.718 216.844C269.894 218.568 270.054 220.292 270.198 222.016C270.417 224.678 270.596 227.339 270.736 230C271.046 235.914 271.141 241.833 271.022 247.757Z" fill="#F26A21"/>
<path d="M294.393 232.257C294.418 234.318 293.919 236.421 293.457 238.442C293.424 238.585 293.394 238.725 293.363 238.868C292.264 238.465 291.316 237.629 290.68 236.5C290.351 235.888 290.107 235.217 289.959 234.514C288.583 235.616 287.196 236.707 285.795 237.787C281.215 241.329 276.374 244.845 271.022 247.757C269.198 248.751 267.317 249.677 265.369 250.507C264.963 248.838 264.578 247.158 264.214 245.467C263.815 243.727 263.503 241.96 263.278 240.177C262.832 236.127 263.178 232.01 264.287 228.14L264.423 227.675C264.94 225.954 265.607 224.301 266.414 222.742C267.171 221.312 268.669 221.551 270.198 222.027C270.891 222.238 271.593 222.492 272.231 222.649C276.204 223.629 280.328 222.617 284.388 222.885C286.323 222.999 288.22 223.567 289.965 224.556C291.92 225.711 293.494 227.478 294.111 229.921C294.199 230.273 294.266 230.632 294.311 230.995C294.363 231.413 294.39 231.835 294.393 232.257Z" fill="#3F3D56"/>
<path d="M221.275 67.5166C214.999 60.3625 207.866 54.2994 200.569 48.6298C198.67 47.2282 196.844 45.6958 195.098 44.0405C193.275 42.2519 191.685 40.1522 189.749 38.5426C187.813 36.9329 185.418 35.8276 183.093 36.357C180.768 36.8864 178.702 39.5048 179.042 42.2448C179.346 44.6557 181.188 46.3083 182.89 47.6926C186.111 50.3146 189.348 52.9437 192.852 55.0005C194.07 55.65 195.25 56.3908 196.387 57.2183C198.569 58.9496 200.159 61.5107 201.809 63.9181C208.038 73.0242 215.668 80.6691 224.3 86.4534C224.403 86.525 227.998 77.3928 227.846 76.2088C227.512 73.4867 222.929 69.4053 221.275 67.5166Z" fill="#3F3D56"/>
<path d="M274.954 183.112C270.11 183.47 265.463 185.394 260.725 186.621C255.987 187.848 250.838 188.324 246.44 185.906L249.115 207.4C249.264 208.595 249.419 209.818 249.197 210.995C248.993 212.119 248.464 213.177 248.51 214.326C248.58 216.143 250.03 217.42 251.394 218.26C255.359 220.724 259.8 221.928 264.281 221.755C263.949 223.329 263.536 224.885 263.202 226.459C265.436 229.281 269.089 229.471 272.277 230.365C274.708 231.041 276.988 232.214 279.37 233.041C282.252 234.042 285.244 234.532 288.248 234.496C290.275 234.471 292.424 234.139 293.998 232.651C295.934 230.816 296.536 227.697 296.956 224.813C297.19 223.204 297.405 221.573 297.259 219.949C297.101 218.081 296.487 216.314 295.88 214.583L291.716 202.689C290.959 200.543 290.196 198.365 289.284 196.294C286.306 189.594 281.364 182.644 274.954 183.112Z" fill="#3F3D56"/>
<path d="M278.662 108.846C279.022 107.733 279.686 106.792 280.55 106.173C281.414 105.553 282.429 105.289 283.434 105.422C284.65 105.623 285.735 106.406 286.777 107.172L292.582 111.435C293.544 112.109 294.467 112.857 295.345 113.675C299.347 117.581 300.891 124.002 301.332 130.1C301.773 136.199 301.332 142.402 302.362 148.401C299.913 150.79 297.196 152.811 294.746 155.197C293.463 156.445 292.166 157.701 291.193 159.307C290.421 160.57 289.871 162.015 289.066 163.242C287.747 165.181 285.833 166.432 283.738 166.726C285.066 167.634 285.811 169.398 286.169 171.154C286.528 172.91 286.625 174.731 287.023 176.488C287.57 178.873 288.704 181.052 289.078 183.484C289.339 185.162 289.224 186.882 289.318 188.585C289.792 197.395 295.667 205.097 295.287 213.911C292.514 212.724 289.89 211.101 287.488 209.085C286.406 208.173 285.361 207.186 284.337 206.202L276.596 198.815C272.83 195.238 269.028 191.583 266.034 187.09C264.156 184.271 262.624 181.152 260.74 178.34C258.856 175.529 256.537 172.975 253.658 171.794C253.236 172.542 252.485 173.061 252.063 173.808C251.988 173.926 251.929 174.056 251.887 174.195C251.835 174.528 251.87 174.872 251.987 175.182C252.326 176.629 252.53 178.115 252.595 179.614L252.786 182.304C252.858 183.017 252.858 183.737 252.786 184.45C252.497 186.75 250.686 188.535 248.732 188.893C248.449 188.965 248.156 188.953 247.878 188.86C247.334 188.646 247.033 187.97 246.869 187.326C246.1 184.271 247.279 181.048 247.373 177.868C247.386 177.061 247.363 176.254 247.303 175.45L247.121 172.277C245.355 171.845 244.34 169.612 243.872 167.563C242.608 162.029 241.334 156.302 242.067 150.636C242.261 149.12 242.602 147.581 242.371 146.065C242.067 144.037 240.827 142.391 240.173 140.481C238.046 134.253 242.565 127.493 242.146 120.807C241.969 117.999 240.456 115.56 239.544 112.956C239.072 111.438 238.461 109.985 237.721 108.624C236.791 107.061 235.535 105.809 234.317 104.55C230.553 100.663 226.983 96.5232 223.625 92.1516C221.9 91.9411 220.282 91.0688 219.02 89.6692C218.218 88.7749 217.558 87.5945 217.537 86.296C217.516 84.9976 218.33 83.6347 219.433 83.5667C220.078 83.5274 220.68 83.903 221.309 84.0675C223.278 84.5755 225.26 82.8692 226.138 80.7266C227.016 78.5839 227.016 76.1194 227.001 73.7442C227.964 73.5431 228.954 73.6373 229.876 74.0176C230.799 74.3979 231.623 75.0515 232.268 75.9155C233.627 77.6539 234.511 79.8216 235.581 81.8176C236.016 82.7044 236.575 83.4988 237.234 84.1677C238.696 85.5341 240.802 85.7917 242.079 87.387C242.726 88.2026 243.085 89.2829 243.678 90.1557C245.343 92.6131 248.391 92.9136 250.668 94.5304C252.944 96.1472 254.528 99.1018 257.05 100.06C257.962 100.418 258.956 100.465 259.858 100.862C261.943 101.774 263.217 104.382 263.506 106.975C263.794 109.568 263.302 112.19 262.803 114.744L261.633 120.721C261.375 122.045 261.177 123.637 262.007 124.581C262.399 124.963 262.859 125.236 263.354 125.379C265.481 126.194 267.852 126.996 269.851 125.84C270.797 125.289 271.538 124.359 272.216 123.408C275.182 119.294 277.155 113.907 278.662 108.846Z" fill="#F26A21"/>
<path d="M302.651 230.483C302.232 233.756 300.7 236.975 298.193 238.474C296.689 239.346 294.954 239.488 293.363 238.867C292.264 238.465 291.316 237.628 290.68 236.499C290.351 235.887 290.108 235.217 289.959 234.514C289.959 234.478 289.944 234.439 289.938 234.403C289.71 233.138 289.615 231.844 289.655 230.551C289.655 228.544 289.756 226.538 289.959 224.545C290.129 222.867 290.409 221.207 290.798 219.58C291.363 217.259 292.178 215.023 292.926 212.784C293.315 211.603 293.688 210.419 293.995 209.207C294.181 208.491 294.339 207.754 294.466 207.01L294.512 206.742C294.536 206.592 294.558 206.442 294.579 206.291C294.883 204.252 294.971 202.142 295.752 200.3C297.576 195.975 301.125 197.081 301.666 201.069C301.707 201.378 301.731 201.69 301.736 202.003C301.818 207.05 300.116 211.982 300.895 217.048C301.114 218.283 301.39 219.503 301.721 220.703C301.995 221.809 302.241 222.928 302.429 224.062C302.811 226.172 302.886 228.343 302.651 230.483Z" fill="#3F3D56"/>
<path d="M304.323 174.359C304.405 176.427 304.323 178.519 304.675 180.547C305.499 185.341 308.626 189.583 308.28 194.455C308.195 195.642 307.821 196.919 306.94 197.506C306.058 198.093 304.599 198.046 304.311 199.227C304.229 199.556 304.271 199.913 304.18 200.239C303.988 200.933 303.268 201.23 302.66 201.212C302.052 201.194 301.445 200.958 300.816 201.019C298.612 201.237 297.804 204.707 295.84 205.898C294.518 206.699 292.801 206.255 291.71 205.071C290.619 203.887 290.142 202.042 290.227 200.293C290.291 198.973 290.646 197.699 290.835 196.397C291.178 194.076 290.999 191.697 290.819 189.35C290.555 185.913 290.281 182.432 289.321 179.174C288.868 177.636 288.266 176.165 287.874 174.606C287.315 172.399 287.188 170.077 287.13 167.777C287.011 162.938 287.294 157.762 289.75 153.87C291.594 150.951 294.239 148.579 296.327 145.879C297.633 144.187 298.01 143.657 299.454 145.092C300.642 146.269 301.885 147.893 302.019 149.488C302.384 153.576 302.019 157.597 302.669 161.761C303.32 165.924 304.153 170.084 304.323 174.359Z" fill="#F26A21"/>
<path d="M272.8 95.5752C281.36 95.5752 288.3 87.4075 288.3 77.3323C288.3 67.257 281.36 59.0894 272.8 59.0894C264.239 59.0894 257.299 67.257 257.299 77.3323C257.299 87.4075 264.239 95.5752 272.8 95.5752Z" fill="#3F3D56"/>
<path d="M286.993 112.23C287.333 111.668 287.738 111.064 288.315 110.946C288.751 110.907 289.187 111.015 289.573 111.257L293.655 113.263C294.758 111.12 295.408 108.696 295.551 106.195C295.637 104.661 295.533 103.105 295.782 101.595C296.153 99.3559 297.281 97.3492 297.542 95.0885C297.749 93.2642 297.375 91.4292 297.15 89.6085C296.457 83.9854 297.202 78.2478 296.804 72.5853C296.405 66.9229 294.476 60.8562 290.184 58.2557C288.968 57.5403 287.659 57.1111 286.394 56.5459C283.577 55.2832 281.051 53.2622 278.267 51.8957C275.483 50.5293 272.213 49.9033 269.514 51.4736C266.815 53.044 265.244 57.4616 266.998 60.3447C267.575 61.2926 268.42 61.9651 269.229 62.6483C270.873 64.0326 272.55 65.7425 272.93 68.0818C273.611 72.292 269.891 75.5936 268.843 79.7108C268.455 81.3186 268.421 83.0157 268.742 84.6435C269.195 87.0831 270.301 89.3867 270.262 91.8835C270.231 94.6199 268.84 97.0988 268.578 99.8209C268.484 100.819 268.542 101.831 268.435 102.826C268.248 104.137 267.918 105.415 267.454 106.628C265.022 113.782 262.557 121.011 258.944 127.443C262.813 127.52 266.637 126.468 270.076 124.381C269.582 127.138 268.636 129.755 267.29 132.086C270.382 131.665 273.356 130.443 276 128.509C275.359 131.212 274.429 133.81 273.234 136.239C273.338 136.031 275.249 135.523 275.602 135.287C276.327 134.802 276.909 134.07 277.273 133.188C278.307 131.013 278.951 128.391 279.908 126.13C281.955 121.284 284.324 116.636 286.993 112.23Z" fill="#3F3D56"/>
<path d="M169.441 2.75441C168.705 2.8417 167.964 2.86203 167.225 2.81522C167.099 2.79903 166.973 2.84168 166.874 2.93401C166.774 3.02634 166.709 3.16094 166.693 3.30885L165.28 15.7856C165.171 16.6913 164.856 17.5454 164.368 18.2573C163.966 18.8238 163.667 19.4816 163.49 20.1899C163.313 20.8982 163.261 21.6417 163.338 22.3745V43.5684C163.338 43.5684 163.247 46.3943 165.092 46.3943C167.3 46.7208 169.534 46.7208 171.742 46.3943C171.742 46.3943 173.219 46.0652 173.219 43.4575V22.5891C173.331 21.861 173.308 21.1128 173.151 20.3963C172.993 19.6798 172.705 19.0122 172.307 18.4397C171.835 17.7252 171.53 16.8781 171.423 15.9823L169.955 3.24447C169.938 3.10126 169.876 2.97089 169.78 2.87987C169.685 2.78884 169.563 2.74398 169.441 2.75441Z" fill="#3F3D56"/>
<path d="M169.45 22.7534H167.21C165.355 22.7534 163.852 24.5231 163.852 26.706V36.6252C163.852 38.8082 165.355 40.5778 167.21 40.5778H169.45C171.305 40.5778 172.808 38.8082 172.808 36.6252V26.706C172.808 24.5231 171.305 22.7534 169.45 22.7534Z" fill="#F26A21"/>
<path d="M190.412 20.9971C189.676 21.0844 188.935 21.1047 188.196 21.0579C188.07 21.0417 187.944 21.0844 187.844 21.1767C187.745 21.269 187.68 21.4036 187.664 21.5515L186.251 34.0282C186.142 34.9339 185.827 35.7881 185.339 36.5C184.937 37.0665 184.638 37.7243 184.461 38.4326C184.283 39.1408 184.232 39.8844 184.309 40.6172V61.8111C184.309 61.8111 184.218 64.637 186.063 64.637C188.271 64.9635 190.505 64.9635 192.712 64.637C192.712 64.637 194.19 64.3079 194.19 61.7002V40.8318C194.302 40.1037 194.279 39.3555 194.122 38.639C193.964 37.9225 193.676 37.2549 193.278 36.6824C192.806 35.9679 192.501 35.1208 192.393 34.225L190.925 21.4871C190.909 21.3439 190.846 21.2136 190.751 21.1225C190.656 21.0315 190.534 20.9867 190.412 20.9971Z" fill="#3F3D56"/>
<path d="M190.421 40.9966H188.181C186.326 40.9966 184.823 42.7662 184.823 44.9492V54.8683C184.823 57.0513 186.326 58.821 188.181 58.821H190.421C192.276 58.821 193.779 57.0513 193.779 54.8683V44.9492C193.779 42.7662 192.276 40.9966 190.421 40.9966Z" fill="#F26A21"/>
<g opacity="0.2">
<path opacity="0.2" d="M166.839 234.736C166.83 235.122 166.792 235.506 166.727 235.884C164.612 235.489 162.484 235.131 160.344 234.811C160.344 234.711 160.344 234.607 160.344 234.504C160.364 233.431 160.627 232.384 161.104 231.47C161.73 230.304 162.682 229.574 163.73 229.614C164.779 229.653 165.687 230.451 166.25 231.656C166.675 232.603 166.879 233.666 166.839 234.736Z" fill="#3F3D56"/>
<path opacity="0.2" d="M167.01 228.628C167.084 225.862 165.689 223.565 163.894 223.498C162.099 223.431 160.583 225.62 160.509 228.386C160.435 231.152 161.83 233.449 163.625 233.516C165.42 233.583 166.936 231.394 167.01 228.628Z" fill="#3F3D56"/>
<path opacity="0.2" d="M167.176 222.504C167.25 219.737 165.855 217.441 164.06 217.374C162.265 217.307 160.749 219.496 160.675 222.262C160.601 225.028 161.996 227.325 163.791 227.392C165.586 227.459 167.101 225.27 167.176 222.504Z" fill="#3F3D56"/>
<path opacity="0.2" d="M167.338 216.38C167.413 213.613 166.018 211.317 164.223 211.25C162.427 211.183 160.912 213.372 160.838 216.138C160.763 218.904 162.159 221.201 163.954 221.268C165.749 221.335 167.264 219.146 167.338 216.38Z" fill="#3F3D56"/>
<path opacity="0.2" d="M167.504 210.256C167.579 207.489 166.184 205.193 164.388 205.126C162.593 205.059 161.078 207.248 161.004 210.014C160.929 212.78 162.324 215.077 164.119 215.144C165.915 215.211 167.43 213.022 167.504 210.256Z" fill="#3F3D56"/>
<path opacity="0.2" d="M153.193 167.76C152.765 167.078 152.379 166.36 152.038 165.613L160.627 164.279L151.382 164.018C150.557 161.715 150.139 159.238 150.156 156.738C150.172 154.239 150.621 151.769 151.476 149.481L163.669 157.511L152.5 147.195C153.627 145.05 155.117 143.202 156.878 141.766C158.639 140.329 160.633 139.335 162.735 138.847C164.837 138.358 167.002 138.384 169.095 138.924C171.187 139.464 173.163 140.507 174.898 141.986C176.634 143.465 178.091 145.349 179.18 147.521C180.268 149.693 180.965 152.106 181.226 154.609C181.486 157.112 181.306 159.651 180.695 162.069C180.085 164.486 179.057 166.729 177.677 168.658C178.343 169.718 178.909 170.861 179.364 172.066L168.091 178.434L180.045 174.202C180.798 177.125 180.919 180.223 180.398 183.216C179.877 186.208 178.73 189 177.06 191.34C178.796 194.111 179.834 197.401 180.055 200.834C180.277 204.266 179.673 207.703 178.313 210.751C176.953 213.799 174.891 216.335 172.364 218.069C169.837 219.803 166.947 220.665 164.023 220.556C161.1 220.448 158.261 219.373 155.832 217.455C153.403 215.538 151.481 212.854 150.287 209.711C149.093 206.568 148.674 203.094 149.079 199.684C149.484 196.275 150.696 193.068 152.576 190.431C150.503 187.119 149.436 183.083 149.546 178.971C149.656 174.86 150.937 170.911 153.184 167.76H153.193Z" fill="#F26A21"/>
<path opacity="0.1" d="M180.707 180.129C180.601 184.243 179.316 188.194 177.06 191.34C178.796 194.111 179.834 197.401 180.055 200.834C180.276 204.266 179.673 207.703 178.313 210.751C176.953 213.799 174.891 216.335 172.364 218.069C169.837 219.803 166.947 220.665 164.023 220.557C161.1 220.448 158.261 219.373 155.832 217.456C153.403 215.538 151.481 212.854 150.287 209.711C149.093 206.569 148.674 203.094 149.079 199.684C149.484 196.275 150.696 193.068 152.576 190.431C150.579 187.237 180.762 178.072 180.707 180.129Z" fill="#F26A21"/>
</g>
</g>
<defs>
<clipPath id="clip0">
<rect width="345" height="255" fill="white"/>
</clipPath>
</defs>
</svg>
